<svg version="1" xmlns="http://www.w3.org/2000/svg" width="682.667" height="682.667" viewBox="0 0 512.000000 512.000000"><path d="M232.5 22.7C133.3 33.6 52.8 103.3 28.5 199c-7.8 30.9-9.2 64.9-3.9 96 12.6 74 59.9 137.9 126.9 171 31.8 15.7 62 23.3 98.8 24.7 9.1.4 15.7.2 15.7-.3s-.7-2.7-1.4-4.9c-7.8-22.2 3.9-50.8 25.4-62.8 8.3-4.6 16.8-6.7 26.7-6.7 23.9 0 43.6 14.3 51.3 37.2l2.6 7.8 8.4-5.1c16.3-9.9 33.8-24.3 48.6-39.9 26-27.7 46-63.9 55.3-100.3 13.8-53.8 9-107.2-14.4-159-7.7-17.1-7-16.3-15.8-17-9.2-.7-16.6-3.7-21.1-8.8-6.4-7-7-16.3-1.5-23.9 2.2-3.1 2.7-4.5 2-5.8-.5-.9-5.7-6.4-11.5-12.1l-10.5-10.4-5.4 1.2-5.3 1.2 5.7 11.5c7.7 15.3 10.4 26.7 9.6 40.2-1.6 26.4-15.1 41.2-37.7 41.2-8.9 0-15.7-2.2-20.9-6.7-5.2-4.4-7.1-8.5-7.1-15.1 0-13.9 14.3-23.7 29.6-20.3 4.8 1.1 6.7 2.1 10.1 5.7l4.1 4.3 1.1-3.1c5.3-15.1-9.1-50.4-30.7-75.5-6.8-7.9-7-7.4 3.1-8.8 2.6-.4 5-1.1 5.3-1.6.9-1.4-26.6-14.3-40.1-18.7-26.4-8.8-41.1-11.2-71-11.7-13.2-.1-25.8-.1-28 .2zm-20 92.8c26.6 6 50.3 19.4 63.5 36 6 7.5 5.8 7.5 15.5 1.7 8.9-5.3 15.6-12.9 20.8-23.3l4.5-8.9.7 3.6c1.4 7.6.7 22.7-1.4 29.4-3.1 9.8-10.2 19.5-20.5 27.7l-3.9 3.1 4.4-1c12.9-2.9 26.8 1.8 36.4 12.4 3 3.4 5.5 6.5 5.5 7 0 .4-2.4-.2-5.2-1.4-7-2.8-15.8-2.8-21.9-.1-2.6 1.1-4.9 2.5-5.3 3.1-.3.5 1 4.3 2.9 8.4 5.8 12.6 7.9 22.5 7.9 36.8.1 14.6-1.1 20-7.9 35-5.8 13-8.6 24.4-8.6 36 0 10.8 1 14.8 6.6 25.9 8.3 16.6 8.6 29.5 1 45.6-6.2 13-19.4 24.8-35 31.1-9.8 3.9-24.3 4.6-34.2 1.5-13.9-4.2-25.2-14.2-34.9-30.8-29.5-50.1-31.8-96.4-6.7-136 3.1-4.9 6.9-11 8.6-13.6 9.9-15.7-2.1-36.1-21.3-36.1-9.5 0-18.9 6.9-30 21.8-8.4 11.5-12.3 15.2-20.7 19.8-6.7 3.7-6.7 3.7-3.9 4.7 3.8 1.5 12.4 1.4 17.9-.3 4.2-1.3 4.7-1.2 4.7.2 0 .8-1.1 3-2.6 4.9l-2.5 3.3h6.1c3.3 0 7.7-.7 9.7-1.5 2-.8 3.8-1.4 3.9-1.2.2.2-.3 3-1.1 6.2-5.1 19.5-21.1 36.1-38.9 40.4-6.8 1.7-21 1.5-28.1-.4-21.4-5.7-35.7-20.7-42.7-45-2-7.1-2.3-10.1-2.2-26 0-16.2.3-19 2.7-27.8 5.2-19.4 16.6-39.4 31-54.4 20.6-21.5 43.4-33.5 73.7-38.9 10-1.8 41.8-1.1 51.5 1.1z"/><path d="M245.4 157.8c-3.3 2.6-4.7 6-4 9.7 1.1 5.5 3 6.2 6.4 2.3 2.5-2.6 3.7-3.2 6.8-3.2 2.2.1 4.6.3 5.4.5 2.7.7 1.2-5.3-2.1-8.4-3.5-3.2-9.2-3.6-12.5-.9z"/></svg>