<?xml version="1.0" encoding="UTF-8" standalone="no"?>
<svg
   xmlns:dc="http://purl.org/dc/elements/1.1/"
   xmlns:cc="http://creativecommons.org/ns#"
   xmlns:rdf="http://www.w3.org/1999/02/22-rdf-syntax-ns#"
   xmlns:svg="http://www.w3.org/2000/svg"
   xmlns="http://www.w3.org/2000/svg"
   xmlns:sodipodi="http://sodipodi.sourceforge.net/DTD/sodipodi-0.dtd"
   xmlns:inkscape="http://www.inkscape.org/namespaces/inkscape"
   width="128"
   height="128"
   viewBox="0 0 33.866664 33.866668"
   version="1.1"
   id="svg8"
   inkscape:version="1.0 (4035a4fb49, 2020-05-01)"
   sodipodi:docname="feather.svg">
  <defs
     id="defs2" />
  <sodipodi:namedview
     id="base"
     pagecolor="#ffffff"
     bordercolor="#666666"
     borderopacity="1.0"
     inkscape:pageopacity="0.0"
     inkscape:pageshadow="2"
     inkscape:zoom="2.8284271"
     inkscape:cx="29.261199"
     inkscape:cy="81.557027"
     inkscape:document-units="mm"
     inkscape:current-layer="layer1"
     showgrid="true"
     units="px"
     inkscape:window-width="1916"
     inkscape:window-height="1160"
     inkscape:window-x="0"
     inkscape:window-y="38"
     inkscape:window-maximized="0"
     inkscape:document-rotation="0"
     inkscape:snap-global="false">
    <inkscape:grid
       type="xygrid"
       id="grid4485"
       empspacing="8"
       spacingx="0.26458333"
       spacingy="0.26458333" />
  </sodipodi:namedview>
  <metadata
     id="metadata5">
    <rdf:RDF>
      <cc:Work
         rdf:about="">
        <dc:format>image/svg+xml</dc:format>
        <dc:type
           rdf:resource="http://purl.org/dc/dcmitype/StillImage" />
        <dc:title></dc:title>
      </cc:Work>
    </rdf:RDF>
  </metadata>
  <g
     inkscape:label="Layer 1"
     inkscape:groupmode="layer"
     id="layer1"
     transform="translate(0,-229.26665)">
    <path
       inkscape:connector-curvature="0"
       id="path4158"
       d="m 2.9060388,234.0736 c 1.1049251,2.01935 2.2111662,4.03332 3.887425,5.56024 1.2265382,1.11726 2.03582,-0.21848 3.009791,-0.75082 1.6192102,0.59368 3.4334942,0.40148 5.2158742,0.33859 -1.158769,1.51224 -2.511936,2.53035 -3.946242,3.34225 2.037278,-0.0382 3.713972,-0.92519 5.033238,-2.65211 1.356716,0.59588 2.864878,0.23596 4.356127,-0.0191 -0.601525,1.43021 -2.296683,3.20232 -3.99766,4.9761 0.348596,-0.0634 0.679493,-0.0348 1.161485,-0.41085 1.421265,-1.10948 2.575587,-2.69494 3.775077,-4.20648 -0.816638,1.62968 -1.787699,3.22169 -3.157553,4.71769 0.26136,0.0833 0.519884,0.15833 0.79386,-0.0553 2.31018,-1.7997 3.703667,-3.937 4.239915,-6.39876 2.727309,-0.96828 4.574525,-0.58901 6.254518,0.0466 -0.878695,1.39941 -1.464303,2.6448 -2.062404,3.89637 0.865883,-0.93261 1.594032,-2.06299 2.598184,-3.30611 0.624313,0.7686 1.179026,1.60516 1.459685,2.70623 -1.02243,0.52593 -1.777152,1.10045 -2.547665,1.67219 l 2.465886,-0.32596 c -0.08062,1.09852 -0.387384,2.25012 -1.180394,3.51683 -1.845645,0.52642 -3.555488,0.60466 -5.289943,0.76288 1.192701,0.55101 2.850944,0.51392 4.539706,0.43842 -0.811345,0.8786 -1.623752,1.75606 -2.608837,2.36547 -1.109522,-0.14561 -2.197379,-0.38603 -3.263558,-0.72295 0.602747,0.61979 1.25107,0.97231 1.898368,1.33082 -1.215651,0.52461 -3.054897,-0.21462 -5.215836,-1.60572 0.245844,1.1059 1.243604,1.66846 2.063935,2.35896 -3.351803,0.48901 -5.729198,-0.86203 -7.159984,-4.00091 -0.02012,1.73756 1.547906,3.49566 3.081555,5.25378 -3.492339,-2.21946 -4.074526,-0.70593 -6.909581,-5.66878 -0.03034,0.88163 0.161448,1.87028 0.385078,2.87451 -2.2054097,-2.02309 -4.6674352,-4.25308 -4.766408,-4.57472 -0.5207746,-2.06915 -1.3521527,-4.41701 -0.7770086,-5.50421 -1.4574918,-1.85149 -2.6845454,-3.68112 -3.5103496,-5.47294 z m 5.107445,7.56988 -0.020674,0.65389 c 6.4053352,6.97364 14.6246272,3.75125 18.0724142,1.99576 0.613383,-0.31235 0.341821,-0.56725 -0.147631,-0.33179 -6.204527,2.9842 -12.560946,2.93011 -17.9042101,-2.31786 z"
       style="fill:#c62828;fill-opacity:1;fill-rule:evenodd;stroke:none;stroke-width:0.0564448;stroke-linecap:butt;stroke-linejoin:miter;stroke-miterlimit:4;stroke-dasharray:none;stroke-opacity:1" />
  </g>
</svg>
