<?xml version="1.0" encoding="UTF-8" standalone="no"?>
<!-- Created with Inkscape (http://www.inkscape.org/) -->

<svg
   xmlns:dc="http://purl.org/dc/elements/1.1/"
   xmlns:cc="http://creativecommons.org/ns#"
   xmlns:rdf="http://www.w3.org/1999/02/22-rdf-syntax-ns#"
   xmlns:svg="http://www.w3.org/2000/svg"
   xmlns="http://www.w3.org/2000/svg"
   xmlns:xlink="http://www.w3.org/1999/xlink"
   xmlns:sodipodi="http://sodipodi.sourceforge.net/DTD/sodipodi-0.dtd"
   xmlns:inkscape="http://www.inkscape.org/namespaces/inkscape"
   width="192"
   height="192"
   viewBox="0 0 50.799997 50.800001"
   version="1.1"
   id="svg8"
   inkscape:version="0.92.4 5da689c313, 2019-01-14"
   sodipodi:docname="icon.svg">
  <defs
     id="defs2">
    <linearGradient
       inkscape:collect="always"
       id="linearGradient1574">
      <stop
         style="stop-color:#ffee58;stop-opacity:1"
         offset="0"
         id="stop1570" />
      <stop
         style="stop-color:#fbc02d;stop-opacity:1"
         offset="1"
         id="stop1572" />
    </linearGradient>
    <linearGradient
       id="linearGradient1550"
       inkscape:collect="always">
      <stop
         id="stop1546"
         offset="0"
         style="stop-color:#ff7043;stop-opacity:1" />
      <stop
         id="stop1548"
         offset="1"
         style="stop-color:#d84315;stop-opacity:1" />
    </linearGradient>
    <linearGradient
       inkscape:collect="always"
       id="linearGradient1532">
      <stop
         style="stop-color:#43a047;stop-opacity:1"
         offset="0"
         id="stop1528" />
      <stop
         style="stop-color:#1b5e20;stop-opacity:1"
         offset="1"
         id="stop1530" />
    </linearGradient>
    <linearGradient
       id="linearGradient1526"
       inkscape:collect="always">
      <stop
         id="stop1522"
         offset="0"
         style="stop-color:#fff176;stop-opacity:1" />
      <stop
         id="stop1524"
         offset="1"
         style="stop-color:#f9a825;stop-opacity:1" />
    </linearGradient>
    <linearGradient
       inkscape:collect="always"
       id="linearGradient1502">
      <stop
         style="stop-color:#ff5722;stop-opacity:1"
         offset="0"
         id="stop1498" />
      <stop
         style="stop-color:#bf360c;stop-opacity:1"
         offset="1"
         id="stop1500" />
    </linearGradient>
    <linearGradient
       id="linearGradient1496"
       inkscape:collect="always">
      <stop
         id="stop1492"
         offset="0"
         style="stop-color:#ffeb3b;stop-opacity:1" />
      <stop
         id="stop1494"
         offset="1"
         style="stop-color:#f9a825;stop-opacity:1" />
    </linearGradient>
    <linearGradient
       inkscape:collect="always"
       id="linearGradient1490">
      <stop
         style="stop-color:#4caf50;stop-opacity:1"
         offset="0"
         id="stop1486" />
      <stop
         style="stop-color:#1b5e20;stop-opacity:1"
         offset="1"
         id="stop1488" />
    </linearGradient>
    <linearGradient
       inkscape:collect="always"
       id="linearGradient1466">
      <stop
         style="stop-color:#ff5722;stop-opacity:1"
         offset="0"
         id="stop1462" />
      <stop
         style="stop-color:#bf360c;stop-opacity:1"
         offset="1"
         id="stop1464" />
    </linearGradient>
    <linearGradient
       id="linearGradient1457"
       inkscape:collect="always">
      <stop
         id="stop1449"
         offset="0"
         style="stop-color:#3949ab;stop-opacity:1" />
      <stop
         id="stop1455"
         offset="1"
         style="stop-color:#1a237e;stop-opacity:1" />
    </linearGradient>
    <linearGradient
       id="linearGradient1031"
       inkscape:collect="always">
      <stop
         id="stop1027"
         offset="0"
         style="stop-color:#ffeb3b;stop-opacity:1" />
      <stop
         id="stop1029"
         offset="1"
         style="stop-color:#f9a825;stop-opacity:1" />
    </linearGradient>
    <linearGradient
       inkscape:collect="always"
       id="linearGradient1013">
      <stop
         style="stop-color:#b3e5fc;stop-opacity:1"
         offset="0"
         id="stop1009" />
      <stop
         id="stop1423"
         offset="0.7030068"
         style="stop-color:#0288d1;stop-opacity:1" />
      <stop
         style="stop-color:#d84315;stop-opacity:1"
         offset="0.71302873"
         id="stop1425" />
      <stop
         style="stop-color:#ff5722;stop-opacity:1"
         offset="1"
         id="stop1011" />
    </linearGradient>
    <clipPath
       clipPathUnits="userSpaceOnUse"
       id="clipPath997">
      <circle
         style="opacity:1;fill:#e8eaf6;fill-opacity:1;stroke:none;stroke-width:26.29999924;stroke-linecap:round;stroke-linejoin:round;stroke-miterlimit:4;stroke-dasharray:none;stroke-dashoffset:0.99968505;stroke-opacity:1"
         id="circle999"
         cx="67.73333"
         cy="229.26665"
         r="63.5" />
    </clipPath>
    <linearGradient
       inkscape:collect="always"
       xlink:href="#linearGradient1502"
       id="linearGradient1025"
       x1="101.24702"
       y1="206.65494"
       x2="123.47199"
       y2="165.95204"
       gradientUnits="userSpaceOnUse"
       gradientTransform="matrix(0.41904805,0,0,0.41948974,-105.93341,177.37152)" />
    <filter
       inkscape:collect="always"
       style="color-interpolation-filters:sRGB"
       id="filter1047"
       x="-0.083863926"
       width="1.1677279"
       y="-0.075027495"
       height="1.150055">
      <feGaussianBlur
         inkscape:collect="always"
         stdDeviation="0.49679598"
         id="feGaussianBlur1049" />
    </filter>
    <filter
       inkscape:collect="always"
       style="color-interpolation-filters:sRGB"
       id="filter1089"
       x="-0.0228"
       width="1.0456"
       y="-0.0228"
       height="1.0456">
      <feGaussianBlur
         inkscape:collect="always"
         stdDeviation="0.44238332"
         id="feGaussianBlur1091" />
    </filter>
    <radialGradient
       inkscape:collect="always"
       xlink:href="#linearGradient1526"
       id="radialGradient1421"
       cx="42.61417"
       cy="126.72596"
       fx="42.61417"
       fy="126.72596"
       r="67.73333"
       gradientUnits="userSpaceOnUse"
       gradientTransform="matrix(-8.0944768e-8,1.8750001,-1.980779,-1.0454251e-7,318.74946,85.865077)" />
    <radialGradient
       inkscape:collect="always"
       xlink:href="#linearGradient1013"
       id="radialGradient1445"
       gradientUnits="userSpaceOnUse"
       gradientTransform="matrix(0.49378509,1.842831,-1.8475147,0.49504006,280.81916,24.501495)"
       cx="40.779198"
       cy="136.4747"
       fx="40.779198"
       fy="136.4747"
       r="67.73333" />
    <linearGradient
       inkscape:collect="always"
       xlink:href="#linearGradient1031"
       id="linearGradient1447"
       gradientUnits="userSpaceOnUse"
       gradientTransform="matrix(0.41904805,0,0,0.41948974,97.26659,177.37152)"
       x1="101.24702"
       y1="206.65494"
       x2="123.47199"
       y2="165.95204" />
    <linearGradient
       inkscape:collect="always"
       xlink:href="#linearGradient1532"
       id="linearGradient1460"
       x1="96"
       y1="40.000008"
       x2="96"
       y2="184"
       gradientUnits="userSpaceOnUse" />
    <radialGradient
       inkscape:collect="always"
       xlink:href="#linearGradient1457"
       id="radialGradient1480"
       gradientUnits="userSpaceOnUse"
       gradientTransform="matrix(-8.0944768e-8,1.8750001,-1.980779,-1.0454251e-7,318.74946,85.865077)"
       cx="42.61417"
       cy="126.72596"
       fx="42.61417"
       fy="126.72596"
       r="67.73333" />
    <linearGradient
       inkscape:collect="always"
       xlink:href="#linearGradient1466"
       id="linearGradient1482"
       gradientUnits="userSpaceOnUse"
       x1="96"
       y1="40.000008"
       x2="96"
       y2="184" />
    <linearGradient
       inkscape:collect="always"
       xlink:href="#linearGradient1031"
       id="linearGradient1484"
       gradientUnits="userSpaceOnUse"
       gradientTransform="matrix(0.41904805,0,0,0.41948974,46.46659,177.37152)"
       x1="101.24702"
       y1="206.65494"
       x2="123.47199"
       y2="165.95204" />
    <radialGradient
       inkscape:collect="always"
       xlink:href="#linearGradient1490"
       id="radialGradient1516"
       gradientUnits="userSpaceOnUse"
       gradientTransform="matrix(-8.0944768e-8,1.8750001,-1.980779,-1.0454251e-7,318.74946,85.865077)"
       cx="42.61417"
       cy="126.72596"
       fx="42.61417"
       fy="126.72596"
       r="67.73333" />
    <linearGradient
       inkscape:collect="always"
       xlink:href="#linearGradient1496"
       id="linearGradient1518"
       gradientUnits="userSpaceOnUse"
       x1="96"
       y1="40.000008"
       x2="96"
       y2="184" />
    <linearGradient
       inkscape:collect="always"
       xlink:href="#linearGradient1550"
       id="linearGradient1520"
       gradientUnits="userSpaceOnUse"
       gradientTransform="matrix(0.41904805,0,0,0.41948974,-55.133406,177.37152)"
       x1="92.881081"
       y1="202.87057"
       x2="126.19686"
       y2="175.08542" />
    <radialGradient
       inkscape:collect="always"
       xlink:href="#linearGradient1490"
       id="radialGradient1564"
       gradientUnits="userSpaceOnUse"
       gradientTransform="matrix(-8.0944768e-8,1.8750001,-1.980779,-1.0454251e-7,318.74946,85.865077)"
       cx="42.61417"
       cy="126.72596"
       fx="42.61417"
       fy="126.72596"
       r="67.73333" />
    <linearGradient
       inkscape:collect="always"
       xlink:href="#linearGradient1496"
       id="linearGradient1566"
       gradientUnits="userSpaceOnUse"
       x1="96"
       y1="40.000008"
       x2="96"
       y2="184" />
    <linearGradient
       inkscape:collect="always"
       xlink:href="#linearGradient1574"
       id="linearGradient1568"
       gradientUnits="userSpaceOnUse"
       gradientTransform="matrix(0.41904805,0,0,0.41948974,-4.333406,177.37152)"
       x1="92.881081"
       y1="202.87057"
       x2="126.19686"
       y2="175.08542" />
  </defs>
  <sodipodi:namedview
     id="base"
     pagecolor="#ffffff"
     bordercolor="#666666"
     borderopacity="1.0"
     inkscape:pageopacity="0.0"
     inkscape:pageshadow="2"
     inkscape:zoom="1"
     inkscape:cx="37.508376"
     inkscape:cy="121.72763"
     inkscape:document-units="mm"
     inkscape:current-layer="layer1"
     showgrid="false"
     units="px"
     inkscape:window-width="1916"
     inkscape:window-height="1160"
     inkscape:window-x="0"
     inkscape:window-y="38"
     inkscape:window-maximized="0"
     inkscape:snap-global="false"
     inkscape:snap-bbox="true"
     inkscape:bbox-nodes="true"
     inkscape:snap-center="true"
     inkscape:snap-grids="true"
     inkscape:object-paths="true">
    <inkscape:grid
       type="xygrid"
       id="grid4485"
       empspacing="4"
       spacingx="1.0583333"
       spacingy="1.0583333" />
  </sodipodi:namedview>
  <metadata
     id="metadata5">
    <rdf:RDF>
      <cc:Work
         rdf:about="">
        <dc:format>image/svg+xml</dc:format>
        <dc:type
           rdf:resource="http://purl.org/dc/dcmitype/StillImage" />
        <dc:title />
      </cc:Work>
    </rdf:RDF>
  </metadata>
  <g
     inkscape:label="Layer 1"
     inkscape:groupmode="layer"
     id="layer1"
     transform="translate(0,-246.19999)">
    <circle
       style="opacity:0.2;fill:#000000;fill-opacity:1;stroke:none;stroke-width:26.29999924;stroke-linecap:round;stroke-linejoin:round;stroke-miterlimit:4;stroke-dasharray:none;stroke-dashoffset:0.99968505;stroke-opacity:1;filter:url(#filter1089)"
       id="path1051"
       cx="-76.200005"
       cy="272.65833"
       r="23.283333" />
    <g
       id="g995"
       clip-path="url(#clipPath997)"
       transform="matrix(0.36666666,0,0,0.36666666,-101.03555,187.53556)"
       style="stroke-width:2.72727275">
      <rect
         y="161.53333"
         x="0"
         height="135.46666"
         width="135.46666"
         id="rect991"
         style="opacity:1;fill:url(#radialGradient1421);fill-opacity:1;stroke:none;stroke-width:71.72727966;stroke-linecap:round;stroke-linejoin:round;stroke-miterlimit:4;stroke-dasharray:none;stroke-dashoffset:0.99968505;stroke-opacity:1" />
      <path
         style="opacity:1;fill:url(#linearGradient1460);fill-opacity:1;stroke:none;stroke-width:99.40158081;stroke-linecap:round;stroke-linejoin:round;stroke-miterlimit:4;stroke-dasharray:none;stroke-dashoffset:0.99968505;stroke-opacity:1"
         clip-path="none"
         d="m 68.513672,42.283203 c -8.834281,0.04765 -17.692096,2.22386 -25.060547,6.603516 -20.550073,12.214538 -28.84696,36.433237 -20.662109,54.484371 4.663039,10.28403 16.987652,14.83861 27.074218,11.08008 6.97571,-2.59934 11.744846,-9.94398 12.759766,-17.095701 -2.248719,1.353426 -4.940695,1.741717 -7.644531,1.041015 1.435708,-0.99458 2.173827,-2.266407 2.136719,-3.591796 -3.26946,1.406987 -7.060826,1.715975 -9.826172,0.357421 10.721434,-4.25367 8.263571,-9.287235 17.126953,-15.574218 7.353799,-5.216197 18.603713,4.368091 12.132812,13.021484 -4.574761,6.117732 -7.098144,11.377295 -8.595703,18.558595 -2.166351,10.38835 -0.154414,23.67735 9.632813,39.07226 5.878958,9.24736 16.702129,13.25042 27.294919,7.5293 12.42228,-6.70926 15.58159,-19.21305 9.73242,-28.50195 -4.36104,-6.92566 -1.55729,-17.36783 1.36133,-22.97852 4.49108,-8.633515 3.7331,-19.499782 -1.81054,-29.363279 3.78281,-2.57983 7.46971,-3.172178 13.05273,-0.111328 -4.43301,-6.919294 -10.26508,-9.75458 -18.0625,-7.388672 10.60252,-7.652938 11.13118,-15.109637 9.63086,-24.097656 C 115.82409,52.87684 112.28752,56.660253 105.48047,59.4375 97.896545,48.037603 83.237473,42.203779 68.513672,42.283203 Z m 25.765625,16.068359 c 0.0908,7.49e-4 0.182893,0.0062 0.273437,0.01172 2.12252,0.159744 3.712638,2.008355 3.552735,4.13086 -0.0191,0.253185 -0.06607,0.498378 -0.13086,0.734375 a 3.7008539,3.7008539 0 0 0 -2.357421,-0.847657 3.7008539,3.7008539 0 0 0 -3.619141,2.929688 c -1.040628,-0.760228 -1.68205,-2.015078 -1.578125,-3.394531 0.151913,-2.01714 1.836542,-3.573599 3.859375,-3.564455 z m 24.718753,97.417968 a 20.518768,20.518768 0 0 0 -9.8711,2.37695 20.518768,20.518768 0 0 0 -8.54687,27.73047 20.518768,20.518768 0 0 0 27.73047,8.54688 20.518768,20.518768 0 0 0 8.54687,-27.73047 20.518768,20.518768 0 0 0 -17.85937,-10.92383 z"
         transform="matrix(0.72159092,0,0,0.72159092,-1.5393974,159.9939)"
         id="circle4803"
         inkscape:connector-curvature="0" />
    </g>
    <path
       id="path1033"
       style="opacity:0.2;fill:#000000;fill-opacity:1;stroke:none;stroke-width:1.05833316;stroke-linecap:square;stroke-linejoin:round;stroke-miterlimit:4;stroke-dasharray:none;stroke-dashoffset:0.99968505;stroke-opacity:1;filter:url(#filter1047)"
       d="m -56.012678,252.22359 c 1.42446,1.42492 2.02349,3.66871 1.013569,5.72124 -0.338294,-0.89885 -1.295613,-1.13983 -2.235515,-1.05637 -1.197475,0.10634 -2.134506,1.13592 -2.07009,2.17743 0.08001,1.29372 1.35143,2.12288 2.913643,2.08249 1.613528,-0.0417 2.348643,-0.99011 2.837112,-1.93383 2.022479,-3.90738 -0.134009,-8.49042 -3.767019,-10.54474 -1.97259,2.21728 -4.847306,3.57863 -8.897526,4.15251 2.307768,2.22637 4.690453,6.98083 3.531222,8.53417 -0.425323,-0.87692 -1.295599,-1.13984 -2.235507,-1.05637 -1.197466,0.10633 -2.095536,0.99639 -2.070086,2.17742 0.02793,1.29591 1.351431,2.12289 2.913649,2.0825 1.613516,-0.0417 2.669663,-0.94474 3.114281,-1.90994 1.338503,-2.90565 -0.01591,-5.70481 -1.049713,-7.34164 1.917606,-0.3384 4.86854,-1.861 6.00198,-3.08487 z"
       inkscape:connector-curvature="0"
       sodipodi:nodetypes="ccsssscccsssscc" />
    <path
       sodipodi:nodetypes="ccsssscccsssscc"
       inkscape:connector-curvature="0"
       d="m -56.012678,251.16527 c 1.42446,1.42492 2.02349,3.66871 1.013569,5.72124 -0.338294,-0.89885 -1.295613,-1.13983 -2.235515,-1.05637 -1.197475,0.10634 -2.134506,1.13592 -2.07009,2.17743 0.08001,1.29372 1.35143,2.12288 2.913643,2.08249 1.613528,-0.0417 2.348643,-0.99011 2.837112,-1.93383 2.022479,-3.90738 -0.134009,-8.49042 -3.767019,-10.54474 -1.97259,2.21728 -4.847306,3.57863 -8.897526,4.15251 2.307768,2.22637 4.690453,6.98083 3.531222,8.53417 -0.425323,-0.87692 -1.295599,-1.13984 -2.235507,-1.05637 -1.197466,0.10633 -2.095536,0.99639 -2.070086,2.17742 0.02793,1.29591 1.351431,2.12289 2.913649,2.0825 1.613516,-0.0417 2.669663,-0.94474 3.114281,-1.90994 1.338503,-2.90565 -0.01591,-5.70481 -1.049713,-7.34164 1.917606,-0.3384 4.86854,-1.861 6.00198,-3.08487 z"
       style="opacity:1;fill:url(#linearGradient1025);fill-opacity:1;stroke:none;stroke-width:1.05833316;stroke-linecap:square;stroke-linejoin:round;stroke-miterlimit:4;stroke-dasharray:none;stroke-dashoffset:0.99968505;stroke-opacity:1"
       id="path4805" />
    <circle
       r="23.283333"
       cy="272.65833"
       cx="127"
       id="circle1427"
       style="opacity:0.2;fill:#000000;fill-opacity:1;stroke:none;stroke-width:26.29999924;stroke-linecap:round;stroke-linejoin:round;stroke-miterlimit:4;stroke-dasharray:none;stroke-dashoffset:0.99968505;stroke-opacity:1;filter:url(#filter1089)" />
    <g
       style="stroke-width:2.72727275"
       transform="matrix(0.36666666,0,0,0.36666666,102.16445,187.53556)"
       clip-path="url(#clipPath997)"
       id="g1433">
      <rect
         style="opacity:1;fill:url(#radialGradient1445);fill-opacity:1;stroke:none;stroke-width:71.72727966;stroke-linecap:round;stroke-linejoin:round;stroke-miterlimit:4;stroke-dasharray:none;stroke-dashoffset:0.99968505;stroke-opacity:1"
         id="rect1429"
         width="135.46666"
         height="135.46666"
         x="0"
         y="161.53333" />
      <path
         id="path1431"
         transform="matrix(0.72159092,0,0,0.72159092,-1.5393974,159.9939)"
         d="m 68.513672,42.283203 c -8.834281,0.04765 -17.692096,2.22386 -25.060547,6.603516 -20.550073,12.214538 -28.84696,36.433233 -20.662109,54.484371 4.663039,10.28403 16.987652,14.83861 27.074218,11.08008 6.97571,-2.59934 11.744846,-9.94398 12.759766,-17.095701 -2.248719,1.353426 -4.940695,1.741717 -7.644531,1.041015 1.435708,-0.99458 2.173828,-2.266406 2.136719,-3.591796 -3.26946,1.406988 -7.060826,1.715975 -9.826172,0.357421 10.721434,-4.25367 8.263571,-9.287235 17.126953,-15.574218 7.353799,-5.216197 18.603713,4.368091 12.132812,13.021484 -4.574761,6.117732 -7.098144,11.377295 -8.595703,18.558595 -2.166351,10.38835 -0.154414,23.67735 9.632813,39.07226 5.878958,9.24736 16.702126,13.25042 27.294919,7.5293 12.42228,-6.70926 15.58159,-19.21305 9.73242,-28.50195 -4.36104,-6.92566 -1.55729,-17.36783 1.36133,-22.97852 4.49108,-8.633518 3.7331,-19.499782 -1.81054,-29.363279 C 107.71748,72.746266 105.36425,66.813563 105.48047,59.4375 97.896546,48.037603 83.237473,42.203779 68.513672,42.283203 Z m 25.765625,16.068359 c 0.0908,7.49e-4 0.182893,0.0062 0.273437,0.01172 2.12252,0.159744 3.712638,2.008355 3.552735,4.13086 -0.0191,0.253185 -0.06607,0.498378 -0.13086,0.734375 a 3.7008539,3.7008539 0 0 0 -2.357421,-0.847657 3.7008539,3.7008539 0 0 0 -3.619141,2.929688 c -1.040628,-0.760228 -1.68205,-2.015078 -1.578125,-3.394531 0.151913,-2.01714 1.836542,-3.5736 3.859375,-3.564455 z m 24.718753,97.417968 a 20.518768,20.518768 0 0 0 -9.8711,2.37695 20.518768,20.518768 0 0 0 -8.54687,27.73047 20.518768,20.518768 0 0 0 27.73047,8.54688 20.518768,20.518768 0 0 0 8.54687,-27.73047 20.518768,20.518768 0 0 0 -17.85937,-10.92383 z"
         clip-path="none"
         style="opacity:1;fill:#ffffff;fill-opacity:1;stroke:none;stroke-width:99.40158081;stroke-linecap:round;stroke-linejoin:round;stroke-miterlimit:4;stroke-dasharray:none;stroke-dashoffset:0.99968505;stroke-opacity:1"
         inkscape:connector-curvature="0" />
    </g>
    <path
       sodipodi:nodetypes="ccsssscccsssscc"
       inkscape:connector-curvature="0"
       d="m 147.18732,252.22359 c 1.42446,1.42492 2.02349,3.66871 1.01357,5.72124 -0.33829,-0.89885 -1.29561,-1.13983 -2.23551,-1.05637 -1.19748,0.10634 -2.13451,1.13592 -2.07009,2.17743 0.08,1.29372 1.35143,2.12288 2.91364,2.08249 1.61353,-0.0417 2.34864,-0.99011 2.83711,-1.93383 2.02248,-3.90738 -0.13401,-8.49042 -3.76702,-10.54474 -1.97259,2.21728 -4.8473,3.57863 -8.89752,4.15251 2.30776,2.22637 4.69045,6.98083 3.53122,8.53417 -0.42533,-0.87692 -1.2956,-1.13984 -2.23551,-1.05637 -1.19747,0.10633 -2.09554,0.99639 -2.07009,2.17742 0.0279,1.29591 1.35144,2.12289 2.91365,2.0825 1.61352,-0.0417 2.66967,-0.94474 3.11428,-1.90994 1.33851,-2.90565 -0.0159,-5.70481 -1.04971,-7.34164 1.91761,-0.3384 4.86854,-1.861 6.00198,-3.08487 z"
       style="opacity:0.2;fill:#000000;fill-opacity:1;stroke:none;stroke-width:1.05833316;stroke-linecap:square;stroke-linejoin:round;stroke-miterlimit:4;stroke-dasharray:none;stroke-dashoffset:0.99968505;stroke-opacity:1;filter:url(#filter1047)"
       id="path1435" />
    <path
       id="path1437"
       style="opacity:1;fill:url(#linearGradient1447);fill-opacity:1;stroke:none;stroke-width:1.05833316;stroke-linecap:square;stroke-linejoin:round;stroke-miterlimit:4;stroke-dasharray:none;stroke-dashoffset:0.99968505;stroke-opacity:1"
       d="m 147.18732,251.16527 c 1.42446,1.42492 2.02349,3.66871 1.01357,5.72124 -0.33829,-0.89885 -1.29561,-1.13983 -2.23551,-1.05637 -1.19748,0.10634 -2.13451,1.13592 -2.07009,2.17743 0.08,1.29372 1.35143,2.12288 2.91364,2.08249 1.61353,-0.0417 2.34864,-0.99011 2.83711,-1.93383 2.02248,-3.90738 -0.13401,-8.49042 -3.76702,-10.54474 -1.97259,2.21728 -4.8473,3.57863 -8.89752,4.15251 2.30776,2.22637 4.69045,6.98083 3.53122,8.53417 -0.42533,-0.87692 -1.2956,-1.13984 -2.23551,-1.05637 -1.19747,0.10633 -2.09554,0.99639 -2.07009,2.17742 0.0279,1.29591 1.35144,2.12289 2.91365,2.0825 1.61352,-0.0417 2.66967,-0.94474 3.11428,-1.90994 1.33851,-2.90565 -0.0159,-5.70481 -1.04971,-7.34164 1.91761,-0.3384 4.86854,-1.861 6.00198,-3.08487 z"
       inkscape:connector-curvature="0"
       sodipodi:nodetypes="ccsssscccsssscc" />
    <path
       style="opacity:1;fill:#ffffff;fill-opacity:1;stroke:none;stroke-width:26.30000114;stroke-linecap:round;stroke-linejoin:round;stroke-miterlimit:4;stroke-dasharray:none;stroke-dashoffset:0.99968505;stroke-opacity:1"
       d="m 131.80629,266.55327 c 1.00087,-0.68258 1.97644,-0.83955 3.45362,-0.0297 -1.1729,-1.83073 -2.71571,-2.58077 -4.77878,-1.95479 2.80525,-2.02484 2.94497,-3.9974 2.54801,-6.37548 -0.78403,1.99743 -1.71971,2.99826 -3.52103,3.73309 -0.43501,1.04981 -0.63199,2.37367 -0.20812,3.47731 0.68739,0.67489 1.56749,0.995 2.5063,1.14969 z"
       id="path1439"
       inkscape:connector-curvature="0"
       sodipodi:nodetypes="cccccccc" />
    <circle
       r="23.283333"
       cy="272.65833"
       cx="76.199997"
       id="circle1468"
       style="opacity:0.2;fill:#000000;fill-opacity:1;stroke:none;stroke-width:26.29999924;stroke-linecap:round;stroke-linejoin:round;stroke-miterlimit:4;stroke-dasharray:none;stroke-dashoffset:0.99968505;stroke-opacity:1;filter:url(#filter1089)" />
    <g
       style="stroke-width:2.72727275"
       transform="matrix(0.36666666,0,0,0.36666666,51.36445,187.53556)"
       clip-path="url(#clipPath997)"
       id="g1474">
      <rect
         style="opacity:1;fill:url(#radialGradient1480);fill-opacity:1;stroke:none;stroke-width:71.72727966;stroke-linecap:round;stroke-linejoin:round;stroke-miterlimit:4;stroke-dasharray:none;stroke-dashoffset:0.99968505;stroke-opacity:1"
         id="rect1470"
         width="135.46666"
         height="135.46666"
         x="0"
         y="161.53333" />
      <path
         id="path1472"
         transform="matrix(0.72159092,0,0,0.72159092,-1.5393974,159.9939)"
         d="m 68.513672,42.283203 c -8.834281,0.04765 -17.692096,2.22386 -25.060547,6.603516 -20.550073,12.214538 -28.84696,36.433237 -20.662109,54.484371 4.663039,10.28403 16.987652,14.83861 27.074218,11.08008 6.97571,-2.59934 11.744846,-9.94398 12.759766,-17.095701 -2.248719,1.353426 -4.940695,1.741717 -7.644531,1.041015 1.435708,-0.99458 2.173827,-2.266407 2.136719,-3.591796 -3.26946,1.406987 -7.060826,1.715975 -9.826172,0.357421 10.721434,-4.25367 8.263571,-9.287235 17.126953,-15.574218 7.353799,-5.216197 18.603713,4.368091 12.132812,13.021484 -4.574761,6.117732 -7.098144,11.377295 -8.595703,18.558595 -2.166351,10.38835 -0.154414,23.67735 9.632813,39.07226 5.878958,9.24736 16.702129,13.25042 27.294919,7.5293 12.42228,-6.70926 15.58159,-19.21305 9.73242,-28.50195 -4.36104,-6.92566 -1.55729,-17.36783 1.36133,-22.97852 4.49108,-8.633515 3.7331,-19.499782 -1.81054,-29.363279 3.78281,-2.57983 7.46971,-3.172178 13.05273,-0.111328 -4.43301,-6.919294 -10.26508,-9.75458 -18.0625,-7.388672 10.60252,-7.652938 11.13118,-15.109637 9.63086,-24.097656 C 115.82409,52.87684 112.28752,56.660253 105.48047,59.4375 97.896545,48.037603 83.237473,42.203779 68.513672,42.283203 Z m 25.765625,16.068359 c 0.0908,7.49e-4 0.182893,0.0062 0.273437,0.01172 2.12252,0.159744 3.712638,2.008355 3.552735,4.13086 -0.0191,0.253185 -0.06607,0.498378 -0.13086,0.734375 a 3.7008539,3.7008539 0 0 0 -2.357421,-0.847657 3.7008539,3.7008539 0 0 0 -3.619141,2.929688 c -1.040628,-0.760228 -1.68205,-2.015078 -1.578125,-3.394531 0.151913,-2.01714 1.836542,-3.573599 3.859375,-3.564455 z m 24.718753,97.417968 a 20.518768,20.518768 0 0 0 -9.8711,2.37695 20.518768,20.518768 0 0 0 -8.54687,27.73047 20.518768,20.518768 0 0 0 27.73047,8.54688 20.518768,20.518768 0 0 0 8.54687,-27.73047 20.518768,20.518768 0 0 0 -17.85937,-10.92383 z"
         clip-path="none"
         style="opacity:1;fill:url(#linearGradient1482);fill-opacity:1;stroke:none;stroke-width:99.40158081;stroke-linecap:round;stroke-linejoin:round;stroke-miterlimit:4;stroke-dasharray:none;stroke-dashoffset:0.99968505;stroke-opacity:1"
         inkscape:connector-curvature="0" />
    </g>
    <path
       sodipodi:nodetypes="ccsssscccsssscc"
       inkscape:connector-curvature="0"
       d="m 96.38732,252.22359 c 1.42446,1.42492 2.02349,3.66871 1.01357,5.72124 -0.33829,-0.89885 -1.29561,-1.13983 -2.23551,-1.05637 -1.19748,0.10634 -2.13451,1.13592 -2.07009,2.17743 0.08,1.29372 1.35143,2.12288 2.91364,2.08249 1.61353,-0.0417 2.34864,-0.99011 2.83711,-1.93383 2.02248,-3.90738 -0.13401,-8.49042 -3.76702,-10.54474 -1.97259,2.21728 -4.8473,3.57863 -8.89752,4.15251 2.30776,2.22637 4.69045,6.98083 3.53122,8.53417 -0.42533,-0.87692 -1.2956,-1.13984 -2.23551,-1.05637 -1.19747,0.10633 -2.09554,0.99639 -2.07009,2.17742 0.0279,1.29591 1.35144,2.12289 2.91365,2.0825 1.61352,-0.0417 2.66967,-0.94474 3.11428,-1.90994 1.33851,-2.90565 -0.0159,-5.70481 -1.04971,-7.34164 1.91761,-0.3384 4.86854,-1.861 6.00198,-3.08487 z"
       style="opacity:0.2;fill:#000000;fill-opacity:1;stroke:none;stroke-width:1.05833316;stroke-linecap:square;stroke-linejoin:round;stroke-miterlimit:4;stroke-dasharray:none;stroke-dashoffset:0.99968505;stroke-opacity:1;filter:url(#filter1047)"
       id="path1476" />
    <path
       id="path1478"
       style="opacity:1;fill:url(#linearGradient1484);fill-opacity:1;stroke:none;stroke-width:1.05833316;stroke-linecap:square;stroke-linejoin:round;stroke-miterlimit:4;stroke-dasharray:none;stroke-dashoffset:0.99968505;stroke-opacity:1"
       d="m 96.38732,251.16527 c 1.42446,1.42492 2.02349,3.66871 1.01357,5.72124 -0.33829,-0.89885 -1.29561,-1.13983 -2.23551,-1.05637 -1.19748,0.10634 -2.13451,1.13592 -2.07009,2.17743 0.08,1.29372 1.35143,2.12288 2.91364,2.08249 1.61353,-0.0417 2.34864,-0.99011 2.83711,-1.93383 2.02248,-3.90738 -0.13401,-8.49042 -3.76702,-10.54474 -1.97259,2.21728 -4.8473,3.57863 -8.89752,4.15251 2.30776,2.22637 4.69045,6.98083 3.53122,8.53417 -0.42533,-0.87692 -1.2956,-1.13984 -2.23551,-1.05637 -1.19747,0.10633 -2.09554,0.99639 -2.07009,2.17742 0.0279,1.29591 1.35144,2.12289 2.91365,2.0825 1.61352,-0.0417 2.66967,-0.94474 3.11428,-1.90994 1.33851,-2.90565 -0.0159,-5.70481 -1.04971,-7.34164 1.91761,-0.3384 4.86854,-1.861 6.00198,-3.08487 z"
       inkscape:connector-curvature="0"
       sodipodi:nodetypes="ccsssscccsssscc" />
    <circle
       r="23.283333"
       cy="272.65833"
       cx="-25.400002"
       id="circle1504"
       style="opacity:0.2;fill:#000000;fill-opacity:1;stroke:none;stroke-width:26.29999924;stroke-linecap:round;stroke-linejoin:round;stroke-miterlimit:4;stroke-dasharray:none;stroke-dashoffset:0.99968505;stroke-opacity:1;filter:url(#filter1089)" />
    <g
       style="stroke-width:2.72727275"
       transform="matrix(0.36666666,0,0,0.36666666,-50.23555,187.53556)"
       clip-path="url(#clipPath997)"
       id="g1510">
      <rect
         style="opacity:1;fill:url(#radialGradient1516);fill-opacity:1;stroke:none;stroke-width:71.72727966;stroke-linecap:round;stroke-linejoin:round;stroke-miterlimit:4;stroke-dasharray:none;stroke-dashoffset:0.99968505;stroke-opacity:1"
         id="rect1506"
         width="135.46666"
         height="135.46666"
         x="0"
         y="161.53333" />
      <path
         id="path1508"
         transform="matrix(0.72159092,0,0,0.72159092,-1.5393974,159.9939)"
         d="m 68.513672,42.283203 c -8.834281,0.04765 -17.692096,2.22386 -25.060547,6.603516 -20.550073,12.214538 -28.84696,36.433237 -20.662109,54.484371 4.663039,10.28403 16.987652,14.83861 27.074218,11.08008 6.97571,-2.59934 11.744846,-9.94398 12.759766,-17.095701 -2.248719,1.353426 -4.940695,1.741717 -7.644531,1.041015 1.435708,-0.99458 2.173827,-2.266407 2.136719,-3.591796 -3.26946,1.406987 -7.060826,1.715975 -9.826172,0.357421 10.721434,-4.25367 8.263571,-9.287235 17.126953,-15.574218 7.353799,-5.216197 18.603713,4.368091 12.132812,13.021484 -4.574761,6.117732 -7.098144,11.377295 -8.595703,18.558595 -2.166351,10.38835 -0.154414,23.67735 9.632813,39.07226 5.878958,9.24736 16.702129,13.25042 27.294919,7.5293 12.42228,-6.70926 15.58159,-19.21305 9.73242,-28.50195 -4.36104,-6.92566 -1.55729,-17.36783 1.36133,-22.97852 4.49108,-8.633515 3.7331,-19.499782 -1.81054,-29.363279 3.78281,-2.57983 7.46971,-3.172178 13.05273,-0.111328 -4.43301,-6.919294 -10.26508,-9.75458 -18.0625,-7.388672 10.60252,-7.652938 11.13118,-15.109637 9.63086,-24.097656 C 115.82409,52.87684 112.28752,56.660253 105.48047,59.4375 97.896545,48.037603 83.237473,42.203779 68.513672,42.283203 Z m 25.765625,16.068359 c 0.0908,7.49e-4 0.182893,0.0062 0.273437,0.01172 2.12252,0.159744 3.712638,2.008355 3.552735,4.13086 -0.0191,0.253185 -0.06607,0.498378 -0.13086,0.734375 a 3.7008539,3.7008539 0 0 0 -2.357421,-0.847657 3.7008539,3.7008539 0 0 0 -3.619141,2.929688 c -1.040628,-0.760228 -1.68205,-2.015078 -1.578125,-3.394531 0.151913,-2.01714 1.836542,-3.573599 3.859375,-3.564455 z m 24.718753,97.417968 a 20.518768,20.518768 0 0 0 -9.8711,2.37695 20.518768,20.518768 0 0 0 -8.54687,27.73047 20.518768,20.518768 0 0 0 27.73047,8.54688 20.518768,20.518768 0 0 0 8.54687,-27.73047 20.518768,20.518768 0 0 0 -17.85937,-10.92383 z"
         clip-path="none"
         style="opacity:1;fill:url(#linearGradient1518);fill-opacity:1;stroke:none;stroke-width:99.40158081;stroke-linecap:round;stroke-linejoin:round;stroke-miterlimit:4;stroke-dasharray:none;stroke-dashoffset:0.99968505;stroke-opacity:1"
         inkscape:connector-curvature="0" />
    </g>
    <path
       sodipodi:nodetypes="ccsssscccsssscc"
       inkscape:connector-curvature="0"
       d="m -5.21268,252.22359 c 1.42446,1.42492 2.02349,3.66871 1.01357,5.72124 -0.33829,-0.89885 -1.29561,-1.13983 -2.23551,-1.05637 -1.19748,0.10634 -2.13451,1.13592 -2.07009,2.17743 0.08,1.29372 1.35143,2.12288 2.91364,2.08249 1.61353,-0.0417 2.34864,-0.99011 2.83711,-1.93383 2.02248,-3.90738 -0.13401,-8.49042 -3.76702,-10.54474 -1.97259,2.21728 -4.8473,3.57863 -8.89752,4.15251 2.30776,2.22637 4.69045,6.98083 3.53122,8.53417 -0.42533,-0.87692 -1.2956,-1.13984 -2.23551,-1.05637 -1.19747,0.10633 -2.09554,0.99639 -2.07009,2.17742 0.0279,1.29591 1.35144,2.12289 2.91365,2.0825 1.61352,-0.0417 2.66967,-0.94474 3.11428,-1.90994 1.33851,-2.90565 -0.0159,-5.70481 -1.04971,-7.34164 1.91761,-0.3384 4.86854,-1.861 6.00198,-3.08487 z"
       style="opacity:0.2;fill:#000000;fill-opacity:1;stroke:none;stroke-width:1.05833316;stroke-linecap:square;stroke-linejoin:round;stroke-miterlimit:4;stroke-dasharray:none;stroke-dashoffset:0.99968505;stroke-opacity:1;filter:url(#filter1047)"
       id="path1512" />
    <path
       id="path1514"
       style="opacity:1;fill:url(#linearGradient1520);fill-opacity:1;stroke:none;stroke-width:1.05833316;stroke-linecap:square;stroke-linejoin:round;stroke-miterlimit:4;stroke-dasharray:none;stroke-dashoffset:0.99968505;stroke-opacity:1"
       d="m -5.21268,251.16527 c 1.42446,1.42492 2.02349,3.66871 1.01357,5.72124 -0.33829,-0.89885 -1.29561,-1.13983 -2.23551,-1.05637 -1.19748,0.10634 -2.13451,1.13592 -2.07009,2.17743 0.08,1.29372 1.35143,2.12288 2.91364,2.08249 1.61353,-0.0417 2.34864,-0.99011 2.83711,-1.93383 2.02248,-3.90738 -0.13401,-8.49042 -3.76702,-10.54474 -1.97259,2.21728 -4.8473,3.57863 -8.89752,4.15251 2.30776,2.22637 4.69045,6.98083 3.53122,8.53417 -0.42533,-0.87692 -1.2956,-1.13984 -2.23551,-1.05637 -1.19747,0.10633 -2.09554,0.99639 -2.07009,2.17742 0.0279,1.29591 1.35144,2.12289 2.91365,2.0825 1.61352,-0.0417 2.66967,-0.94474 3.11428,-1.90994 1.33851,-2.90565 -0.0159,-5.70481 -1.04971,-7.34164 1.91761,-0.3384 4.86854,-1.861 6.00198,-3.08487 z"
       inkscape:connector-curvature="0"
       sodipodi:nodetypes="ccsssscccsssscc" />
    <circle
       style="opacity:0.2;fill:#000000;fill-opacity:1;stroke:none;stroke-width:26.29999924;stroke-linecap:round;stroke-linejoin:round;stroke-miterlimit:4;stroke-dasharray:none;stroke-dashoffset:0.99968505;stroke-opacity:1;filter:url(#filter1089)"
       id="circle1552"
       cx="25.399998"
       cy="272.65833"
       r="23.283333" />
    <g
       id="g1558"
       clip-path="url(#clipPath997)"
       transform="matrix(0.36666666,0,0,0.36666666,0.56445,187.53556)"
       style="stroke-width:2.72727275">
      <rect
         y="161.53333"
         x="0"
         height="135.46666"
         width="135.46666"
         id="rect1554"
         style="opacity:1;fill:url(#radialGradient1564);fill-opacity:1;stroke:none;stroke-width:71.72727966;stroke-linecap:round;stroke-linejoin:round;stroke-miterlimit:4;stroke-dasharray:none;stroke-dashoffset:0.99968505;stroke-opacity:1" />
      <path
         inkscape:connector-curvature="0"
         style="opacity:1;fill:url(#linearGradient1566);fill-opacity:1;stroke:none;stroke-width:99.40158081;stroke-linecap:round;stroke-linejoin:round;stroke-miterlimit:4;stroke-dasharray:none;stroke-dashoffset:0.99968505;stroke-opacity:1"
         clip-path="none"
         d="m 68.513672,42.283203 c -8.834281,0.04765 -17.692096,2.22386 -25.060547,6.603516 -20.550073,12.214538 -28.84696,36.433237 -20.662109,54.484371 4.663039,10.28403 16.987652,14.83861 27.074218,11.08008 6.97571,-2.59934 11.744846,-9.94398 12.759766,-17.095701 -2.248719,1.353426 -4.940695,1.741717 -7.644531,1.041015 1.435708,-0.99458 2.173827,-2.266407 2.136719,-3.591796 -3.26946,1.406987 -7.060826,1.715975 -9.826172,0.357421 10.721434,-4.25367 8.263571,-9.287235 17.126953,-15.574218 7.353799,-5.216197 18.603713,4.368091 12.132812,13.021484 -4.574761,6.117732 -7.098144,11.377295 -8.595703,18.558595 -2.166351,10.38835 -0.154414,23.67735 9.632813,39.07226 5.878958,9.24736 16.702129,13.25042 27.294919,7.5293 12.42228,-6.70926 15.58159,-19.21305 9.73242,-28.50195 -4.36104,-6.92566 -1.55729,-17.36783 1.36133,-22.97852 4.49108,-8.633515 3.7331,-19.499782 -1.81054,-29.363279 3.78281,-2.57983 7.46971,-3.172178 13.05273,-0.111328 -4.43301,-6.919294 -10.26508,-9.75458 -18.0625,-7.388672 10.60252,-7.652938 11.13118,-15.109637 9.63086,-24.097656 C 115.82409,52.87684 112.28752,56.660253 105.48047,59.4375 97.896545,48.037603 83.237473,42.203779 68.513672,42.283203 Z m 25.765625,16.068359 c 0.0908,7.49e-4 0.182893,0.0062 0.273437,0.01172 2.12252,0.159744 3.712638,2.008355 3.552735,4.13086 -0.0191,0.253185 -0.06607,0.498378 -0.13086,0.734375 a 3.7008539,3.7008539 0 0 0 -2.357421,-0.847657 3.7008539,3.7008539 0 0 0 -3.619141,2.929688 c -1.040628,-0.760228 -1.68205,-2.015078 -1.578125,-3.394531 0.151913,-2.01714 1.836542,-3.573599 3.859375,-3.564455 z m 24.718753,97.417968 a 20.518768,20.518768 0 0 0 -9.8711,2.37695 20.518768,20.518768 0 0 0 -8.54687,27.73047 20.518768,20.518768 0 0 0 27.73047,8.54688 20.518768,20.518768 0 0 0 8.54687,-27.73047 20.518768,20.518768 0 0 0 -17.85937,-10.92383 z"
         transform="matrix(0.72159092,0,0,0.72159092,-1.5393974,159.9939)"
         id="path1556" />
    </g>
    <path
       id="path1560"
       style="opacity:0.2;fill:#000000;fill-opacity:1;stroke:none;stroke-width:1.05833316;stroke-linecap:square;stroke-linejoin:round;stroke-miterlimit:4;stroke-dasharray:none;stroke-dashoffset:0.99968505;stroke-opacity:1;filter:url(#filter1047)"
       d="m 45.58732,252.22359 c 1.42446,1.42492 2.02349,3.66871 1.01357,5.72124 -0.33829,-0.89885 -1.29561,-1.13983 -2.23551,-1.05637 -1.19748,0.10634 -2.13451,1.13592 -2.07009,2.17743 0.08,1.29372 1.35143,2.12288 2.91364,2.08249 1.61353,-0.0417 2.34864,-0.99011 2.83711,-1.93383 2.02248,-3.90738 -0.13401,-8.49042 -3.76702,-10.54474 -1.97259,2.21728 -4.8473,3.57863 -8.89752,4.15251 2.30776,2.22637 4.69045,6.98083 3.53122,8.53417 -0.42533,-0.87692 -1.2956,-1.13984 -2.23551,-1.05637 -1.19747,0.10633 -2.09554,0.99639 -2.07009,2.17742 0.0279,1.29591 1.35144,2.12289 2.91365,2.0825 1.61352,-0.0417 2.66967,-0.94474 3.11428,-1.90994 1.33851,-2.90565 -0.0159,-5.70481 -1.04971,-7.34164 1.91761,-0.3384 4.86854,-1.861 6.00198,-3.08487 z"
       inkscape:connector-curvature="0"
       sodipodi:nodetypes="ccsssscccsssscc" />
    <path
       sodipodi:nodetypes="ccsssscccsssscc"
       inkscape:connector-curvature="0"
       d="m 45.58732,251.16527 c 1.42446,1.42492 2.02349,3.66871 1.01357,5.72124 -0.33829,-0.89885 -1.29561,-1.13983 -2.23551,-1.05637 -1.19748,0.10634 -2.13451,1.13592 -2.07009,2.17743 0.08,1.29372 1.35143,2.12288 2.91364,2.08249 1.61353,-0.0417 2.34864,-0.99011 2.83711,-1.93383 2.02248,-3.90738 -0.13401,-8.49042 -3.76702,-10.54474 -1.97259,2.21728 -4.8473,3.57863 -8.89752,4.15251 2.30776,2.22637 4.69045,6.98083 3.53122,8.53417 -0.42533,-0.87692 -1.2956,-1.13984 -2.23551,-1.05637 -1.19747,0.10633 -2.09554,0.99639 -2.07009,2.17742 0.0279,1.29591 1.35144,2.12289 2.91365,2.0825 1.61352,-0.0417 2.66967,-0.94474 3.11428,-1.90994 1.33851,-2.90565 -0.0159,-5.70481 -1.04971,-7.34164 1.91761,-0.3384 4.86854,-1.861 6.00198,-3.08487 z"
       style="opacity:1;fill:url(#linearGradient1568);fill-opacity:1;stroke:none;stroke-width:1.05833316;stroke-linecap:square;stroke-linejoin:round;stroke-miterlimit:4;stroke-dasharray:none;stroke-dashoffset:0.99968505;stroke-opacity:1"
       id="path1562" />
  </g>
</svg>
