<?xml version="1.0" encoding="UTF-8" standalone="no"?>
<!-- Created with Inkscape (http://www.inkscape.org/) -->

<svg
   xmlns:dc="http://purl.org/dc/elements/1.1/"
   xmlns:cc="http://creativecommons.org/ns#"
   xmlns:rdf="http://www.w3.org/1999/02/22-rdf-syntax-ns#"
   xmlns:svg="http://www.w3.org/2000/svg"
   xmlns="http://www.w3.org/2000/svg"
   xmlns:sodipodi="http://sodipodi.sourceforge.net/DTD/sodipodi-0.dtd"
   xmlns:inkscape="http://www.inkscape.org/namespaces/inkscape"
   width="512"
   height="512"
   viewBox="0 0 135.46666 135.46667"
   version="1.1"
   id="svg8"
   inkscape:version="0.92.4 5da689c313, 2019-01-14"
   sodipodi:docname="icon.svg">
  <defs
     id="defs2" />
  <sodipodi:namedview
     id="base"
     pagecolor="#ffffff"
     bordercolor="#666666"
     borderopacity="1.0"
     inkscape:pageopacity="0.0"
     inkscape:pageshadow="2"
     inkscape:zoom="0.99999999"
     inkscape:cx="140.90802"
     inkscape:cy="271.90108"
     inkscape:document-units="mm"
     inkscape:current-layer="layer1"
     showgrid="false"
     units="px"
     inkscape:window-width="1916"
     inkscape:window-height="1160"
     inkscape:window-x="0"
     inkscape:window-y="38"
     inkscape:window-maximized="0"
     inkscape:snap-global="false"
     inkscape:snap-bbox="true"
     inkscape:bbox-nodes="true"
     inkscape:snap-center="true"
     inkscape:snap-grids="true"
     inkscape:object-paths="true">
    <inkscape:grid
       type="xygrid"
       id="grid4485"
       empspacing="4"
       spacingx="4.2333333"
       spacingy="4.2333333" />
  </sodipodi:namedview>
  <metadata
     id="metadata5">
    <rdf:RDF>
      <cc:Work
         rdf:about="">
        <dc:format>image/svg+xml</dc:format>
        <dc:type
           rdf:resource="http://purl.org/dc/dcmitype/StillImage" />
        <dc:title></dc:title>
      </cc:Work>
    </rdf:RDF>
  </metadata>
  <g
     inkscape:label="Layer 1"
     inkscape:groupmode="layer"
     id="layer1"
     transform="translate(0,-161.53332)">
    <path
       style="opacity:1;fill:#26a69a;fill-opacity:1;stroke:none;stroke-width:26.29999924;stroke-linecap:round;stroke-linejoin:round;stroke-miterlimit:4;stroke-dasharray:none;stroke-dashoffset:0.99968505;stroke-opacity:1"
       d="m 235.38891,21.594512 c -5.81707,0.0377 -11.29865,1.60261 -16.38601,4.91414 -11.54306,7.51374 -16.83921,17.70294 -17.05557,31.6462 -0.83786,1.09237 -4.57224,0.15678 -6.98251,-4.46132 0.25927,2.81241 0.89888,5.18399 1.86385,6.63297 -1.12195,-0.32819 -1.94797,-1.09627 -2.76446,-2.67605 3.07993,13.00864 11.415,18.39197 19.83032,19.0504 7.3964,0.5787 14.99611,-2.82558 17.51277,-11.05668 1.64672,-5.38582 0.0795,-14.17951 6.52959,-12.63969 5.85651,1.39813 -0.86901,13.46542 -1.95334,18.94783 -1.9304,9.76018 1.10185,18.82755 7.50745,27.26611 4.75302,6.261488 11.81024,9.170568 19.58112,5.401388 10.30668,-4.999168 10.96574,-15.817408 5.77173,-24.427488 -3.00587,-4.9828 0.12807,-11.16751 0.6982,-13.46673 1.76234,-7.10713 1.75731,-13.96948 0.18899,-20.10227 -4.62615,-2.99836 -6.31469,-7.25416 -6.23131,-12.5457 -3.8733,-4.78237 -9.18084,-8.44455 -15.71787,-10.48495 -4.27536,-1.33446 -8.41285,-2.02393 -12.39295,-1.9982 z m 19.55012,11.9663 c 0.0651,5.5e-4 0.13025,0.004 0.19519,0.008 1.52269,0.1146 2.66413,1.44195 2.54942,2.96462 -0.11485,1.52249 -1.44211,2.66367 -2.96461,2.54893 -1.52269,-0.11458 -2.66414,-1.44193 -2.54942,-2.96461 0.10898,-1.44708 1.31826,-2.56362 2.76942,-2.55705 z"
       id="path4749"
       inkscape:connector-curvature="0"
       sodipodi:nodetypes="ccccccsccssccccccccccccccc" />
    <path
       style="opacity:1;fill:#d32f2f;fill-opacity:1;stroke:none;stroke-width:26.29999924;stroke-linecap:round;stroke-linejoin:round;stroke-miterlimit:4;stroke-dasharray:none;stroke-dashoffset:0.99968505;stroke-opacity:1"
       d="m 68.52796,358.18145 9.394768,-9.87146 -4.425699,11.77899 11.037797,-1.24267 -12.840188,6.49578 z"
       id="path4699"
       inkscape:connector-curvature="0" />
    <path
       style="opacity:1;fill:#4caf50;fill-opacity:1;stroke:none;stroke-width:1.05833328;stroke-linecap:square;stroke-linejoin:round;stroke-miterlimit:4;stroke-dasharray:none;stroke-dashoffset:0.99968505;stroke-opacity:1"
       d="m -200.22591,162.69959 c 2.90377,5.40402 6.66193,9.69113 11.13834,12.97337 10.14841,-13.57829 27.03649,-13.07508 40.62646,-5.19452 18.03207,10.45644 20.29713,33.63132 3.92741,55.1093 5.51611,7.28624 21.66594,11.40321 27.92853,5.60431 -1.1708,4.10423 -3.303,7.16683 -5.94589,9.33741 3.78246,0.49438 5.80288,0.17678 8.71109,-2.42775 -9.18095,19.87237 -25.26409,28.23184 -51.23857,27.03273 -42.35556,-1.95534 -55.36355,-41.52004 -32.40232,-76.80179 -2.65965,-2.49806 -6.76972,-3.45152 -12.31088,-2.19056 4.9859,-4.36888 11.00654,-4.53621 18.0511,-1.89136 -6.07303,-5.99211 -7.50381,-13.52918 -8.48527,-21.55114 z m 22.2989,13.97279 c -2.11882,0 -3.83646,1.71764 -3.83646,3.83646 0,2.11882 1.71764,3.83646 3.83646,3.83646 2.11882,0 3.83646,-1.71764 3.83646,-3.83646 0,-2.11882 -1.71764,-3.83646 -3.83646,-3.83646 z"
       id="path4516"
       inkscape:connector-curvature="0"
       sodipodi:nodetypes="ccsccccsccccsssss" />
    <path
       id="path4554"
       style="opacity:1;fill:#4caf50;fill-opacity:1;stroke:none;stroke-width:1.05833328;stroke-linecap:square;stroke-linejoin:round;stroke-miterlimit:4;stroke-dasharray:none;stroke-dashoffset:0.99968505;stroke-opacity:1"
       d="m -211.80202,155.77268 c -1.5852,3.80688 -1.77003,7.9694 -0.67101,13.09842 -0.99023,-1.6533 -2.95723,-1.92116 -5.11558,-1.49962 -2.57722,0.50335 -4.3409,2.96414 -3.77513,5.41756 0.67811,2.94056 3.51213,4.69169 7.13565,4.32432 3.74254,-0.37944 6.46855,-3.80949 6.23569,-6.27301 -0.39031,-4.1291 -2.86007,-11.27315 3.59794,-22.47287 -8.68651,1.09645 -13.91308,0.17669 -19.95136,-4.70396 -4.63067,5.3257 -6.54608,12.0499 -5.03951,18.75895 -1.23543,-1.68068 -3.34443,-1.91745 -5.19307,-1.59316 -2.51635,0.44143 -4.32151,2.58664 -4.05574,5.32402 0.29161,3.00361 3.51212,4.69169 7.13565,4.32432 3.74253,-0.37943 6.62143,-3.08199 6.34218,-5.5407 -0.48464,-4.26725 -1.73075,-8.22252 0.63178,-12.68331 3.36832,2.71385 8.61871,4.0331 12.72251,3.51904 z"
       inkscape:connector-curvature="0"
       sodipodi:nodetypes="ccsssscccsssscc" />
    <rect
       style="opacity:1;fill:#4caf50;fill-opacity:1;stroke:none;stroke-width:1.05861151;stroke-linecap:square;stroke-linejoin:round;stroke-miterlimit:4;stroke-dasharray:none;stroke-dashoffset:0.99968505;stroke-opacity:1"
       id="rect4559"
       width="19.10705"
       height="47.446449"
       x="196.41071"
       y="269.88992"
       ry="9.5539999"
       rx="9.5539999" />
    <path
       sodipodi:nodetypes="cccscsccccscscccccccc"
       inkscape:connector-curvature="0"
       id="path4576"
       d="m 172.63869,211.45152 v 19.02727 c -0.76,-0.22093 -1.57889,-0.33505 -2.40657,-0.33538 -3.36089,0 -6.08542,1.8361 -6.08542,4.10104 0,2.26494 2.72453,4.10104 6.08542,4.10104 3.28188,-0.002 6.07559,-1.75566 6.07559,-3.96875 0,-5.3908 0.004,-8.35726 0.007,-13.79089 h 13.78676 v 9.89294 c -0.76,-0.22092 -1.57889,-0.33504 -2.40657,-0.33538 -3.36088,0 -6.08542,1.8361 -6.08542,4.10104 0,2.26495 2.72454,4.10104 6.08542,4.10104 3.28188,-0.002 6.07559,-1.75567 6.07559,-3.96875 0,-7.59599 0.01,-15.28787 0.01,-22.92522 -7.24637,0.01 -15.02584,1.8e-4 -21.14135,0 z m 3.67574,3.14762 h 13.78676 v 2.81119 h -13.78676 z"
       style="opacity:1;fill:#4caf50;fill-opacity:1;stroke:none;stroke-width:1.05833328;stroke-linecap:square;stroke-linejoin:round;stroke-miterlimit:4;stroke-dasharray:none;stroke-dashoffset:0.99968505;stroke-opacity:1" />
    <path
       sodipodi:nodetypes="ccsssscccsssscc"
       inkscape:connector-curvature="0"
       d="m 196.79047,163.18699 c 3.55974,3.05852 6.23395,9.65043 4.246,14.59237 -0.94345,-2.02747 -3.21043,-2.41925 -5.38016,-2.06088 -2.76431,0.45658 -4.76185,3.01091 -4.42994,5.41756 0.41228,2.98944 3.51213,4.69169 7.13565,4.32432 3.74254,-0.37944 5.43069,-2.90412 6.23569,-5.24402 3.35147,-9.74177 -2.72569,-21.27965 -10.95414,-25.08936 -4.19638,5.49304 -10.63903,9.15695 -19.95137,11.19858 5.75276,4.76444 12.49614,16.91145 10.07385,20.72063 -1.14189,-1.96132 -3.21042,-2.41925 -5.38016,-2.06088 -2.76431,0.45658 -4.6957,2.68018 -4.42993,5.41756 0.29162,3.00361 3.51213,4.69169 7.13566,4.32432 3.74253,-0.37943 6.03902,-2.66083 6.90345,-4.97944 2.60232,-6.98004 -1.40929,-14.76785 -4.09815,-18.38676 4.39731,-1.12146 10.47355,-5.13424 12.89355,-8.174 z"
       style="opacity:1;fill:#4caf50;fill-opacity:1;stroke:none;stroke-width:1.05833328;stroke-linecap:square;stroke-linejoin:round;stroke-miterlimit:4;stroke-dasharray:none;stroke-dashoffset:0.99968505;stroke-opacity:1"
       id="path4691" />
    <path
       id="path4695"
       style="opacity:1;fill:#2196f3;fill-opacity:1;stroke:none;stroke-width:26.29999924;stroke-linecap:round;stroke-linejoin:round;stroke-miterlimit:4;stroke-dasharray:none;stroke-dashoffset:0.99968505;stroke-opacity:1"
       d="m 90.389726,422.14527 a 14.358495,14.358495 0 0 1 -5.327231,19.59472 14.358495,14.358495 0 0 1 -19.594726,-5.32722 14.358495,14.358495 0 0 1 5.327226,-19.59474 14.358495,14.358495 0 0 1 19.594731,5.32724 z M 43.806331,345.71683 c -4.428902,0.25487 -8.933238,1.43359 -13.082031,3.66211 -16.105822,8.65122 -21.6338245,28.59543 -11.185541,43.52539 4.118825,6.07486 12.412944,7.60272 18.42607,3.39429 6.013131,-4.20842 7.417902,-12.52426 3.120798,-18.47436 0.154067,0.22015 0.520302,-4.43651 2.082034,-5.27539 1.989871,-1.06889 2.512284,-0.90508 3.898436,-0.37696 1.386152,0.52812 3.427811,2.09936 4.914064,4.40235 1.179052,1.82697 0.87008,1.8459 0.874998,1.7539 0.0049,-0.092 0.0071,0.28562 -0.753905,1.64453 -0.761012,1.35891 -2.268382,3.27291 -3.937501,6.89258 -1.669118,3.61967 -3.053867,11.08696 0.10547,17.0586 1.983678,3.74944 2.923241,5.43088 3.955079,6.99218 0.515921,0.78065 -0.399952,1.10624 3.875001,4.07032 1.068737,0.74101 2.702895,1.97059 6.322263,2.30273 3.619373,0.33214 9.239488,-2.03271 11.54883,-4.96484 4.618687,-5.86427 2.796877,-8.9961 2.796877,-8.9961 -0.131679,-2.60778 -1.036644,-5.11734 -2.599609,-7.20898 -0.016,0.11379 -0.01882,0.27135 -0.002,0.29687 0.01948,0.0294 -0.4352,-0.79111 -0.484371,-0.875 0.0067,0.008 0.0424,0.0331 0.04881,0.041 -0.0253,-0.0301 -0.05063,-0.06 -0.07617,-0.0899 -0.01011,-0.0173 -0.07922,-0.14643 -0.09178,-0.16797 0.534259,-0.87729 0.654245,-1.01766 1.484377,-2.49999 1.678239,-2.99679 3.768087,-7.43992 4.070308,-13.09181 0.30227,-5.65181 -1.498566,-11.93188 -5.039014,-17.41789 -4.103744,-6.35886 -9.960712,-11.79051 -17.646483,-14.71875 -3.84289,-1.46414 -8.196102,-2.13378 -12.625005,-1.87892 z"
       inkscape:connector-curvature="0" />
    <circle
       r="2.9936795"
       cy="353.3414"
       cx="90.109634"
       id="circle4697"
       style="opacity:1;fill:#ffffff;fill-opacity:1;stroke:none;stroke-width:26.30000496;stroke-linecap:round;stroke-linejoin:round;stroke-miterlimit:4;stroke-dasharray:none;stroke-dashoffset:0.99968505;stroke-opacity:1"
       transform="rotate(4.3097144)" />
    <path
       id="path4703"
       style="opacity:1;fill:#d32f2f;fill-opacity:1;stroke:none;stroke-width:1.05833328;stroke-linecap:square;stroke-linejoin:round;stroke-miterlimit:4;stroke-dasharray:none;stroke-dashoffset:0.99968505;stroke-opacity:1"
       d="m 108.02485,323.71469 c 3.39928,3.39677 5.62252,10.33312 3.21249,15.22605 -0.80729,-2.14271 -3.09181,-2.71718 -5.33476,-2.51822 -2.8576,0.25348 -5.0937,2.70784 -4.93998,5.19066 0.19092,3.08404 3.22501,5.06062 6.95301,4.96434 3.85046,-0.0994 5.76838,-2.54734 6.77037,-4.87452 4.17155,-9.68881 -1.14564,-21.937 -9.25404,-26.46 -4.70732,5.28568 -11.567425,8.53093 -21.232747,9.89896 5.50718,5.30731 11.457732,18.22873 8.69139,21.93164 -1.014993,-2.09044 -3.0918,-2.71717 -5.334762,-2.51821 -2.857585,0.25348 -5.000703,2.37524 -4.939973,5.19065 0.06666,3.08924 3.225002,5.06063 6.953021,4.96435 3.850461,-0.0994 6.370805,-2.25212 7.431826,-4.553 3.194145,-6.92662 -0.30262,-15.18692 -2.769562,-19.08886 4.57609,-0.8067 11.088917,-4.43634 13.793717,-7.35384 z"
       inkscape:connector-curvature="0"
       sodipodi:nodetypes="ccsssscccsssscc" />
    <path
       id="circle4717"
       transform="matrix(0.26458333,0,0,0.26458333,0,161.53332)"
       style="opacity:1;fill:#2196f3;fill-opacity:1;stroke:none;stroke-width:99.40157318;stroke-linecap:round;stroke-linejoin:round;stroke-miterlimit:4;stroke-dasharray:none;stroke-dashoffset:0.99968505;stroke-opacity:1"
       d="M -90.240234,293.75977 C -63.227246,266.78053 -48.033732,230.17826 -48,192 c -0.01353,-1.82077 -0.104762,-3.64013 -0.273438,-5.45312 C -51.202208,109.26106 -114.65876,48.091383 -192,48 c -79.52901,-6e-6 -144.00001,64.47099 -144,144 0,35.34622 28.65378,64 64,64 35.34622,0 64,-28.65378 64,-64 0,-8.83656 7.16344,-16 16,-16 8.83656,0 16,7.16344 16,16 -0.004,4.24203 -1.69192,8.30895 -4.69336,11.30664 l -35,35 c -27.01299,26.97924 -42.2065,63.58151 -42.24023,101.75977 h 0.16797 c 0,35.34622 28.65378,64 64,64 35.34622,0 64,-28.65378 64,-64 -0.0128,-0.58489 -0.0336,-1.16959 -0.0625,-1.75391 0.39977,-3.61295 2.01786,-6.98209 4.58789,-9.55273 z"
       inkscape:connector-curvature="0"
       sodipodi:nodetypes="ccccsssscccccscccc" />
    <circle
       r="16.933332"
       cy="287.75729"
       cx="-51.267258"
       id="circle4740"
       style="opacity:1;fill:#2196f3;fill-opacity:1;stroke:none;stroke-width:26.29999924;stroke-linecap:round;stroke-linejoin:round;stroke-miterlimit:4;stroke-dasharray:none;stroke-dashoffset:0.99968505;stroke-opacity:1" />
    <circle
       style="opacity:1;fill:#26a69a;fill-opacity:1;stroke:none;stroke-width:26.29999924;stroke-linecap:round;stroke-linejoin:round;stroke-miterlimit:4;stroke-dasharray:none;stroke-dashoffset:0.99968505;stroke-opacity:1"
       id="path4776"
       cx="186.06348"
       cy="231.75969"
       r="14.517879"
       transform="rotate(-27.868358)" />
    <path
       sodipodi:nodetypes="ccsssscccsssscc"
       inkscape:connector-curvature="0"
       d="m 303.6959,9.8257821 c 3.39928,3.3967699 5.35794,8.7456199 2.94791,13.6385499 -0.80729,-2.14271 -3.09181,-2.71718 -5.33476,-2.51822 -2.8576,0.25348 -5.0937,2.70784 -4.93998,5.19066 0.19092,3.08404 3.22501,5.06062 6.95301,4.96434 3.85046,-0.0994 5.60471,-2.36028 6.77037,-4.60994 4.82636,-9.31463 -0.88106,-20.6140799 -8.98946,-25.1370799 -4.70732,5.28568 -11.56742,8.53093 -21.23274,9.8989599 5.50718,5.30731 11.19315,16.64123 8.4268,20.34414 -1.01499,-2.09044 -3.0918,-2.71717 -5.33475,-2.51821 -2.85759,0.25348 -5.00071,2.37524 -4.93998,5.19065 0.0667,3.08924 3.22501,5.06063 6.95302,4.96435 3.85046,-0.0994 6.37081,-2.25212 7.43183,-4.553 3.19414,-6.92662 -0.038,-13.59942 -2.50499,-17.50136 4.57609,-0.8067 11.08892,-4.43634 13.79372,-7.3538399 z"
       style="opacity:1;fill:#e53935;fill-opacity:1;stroke:none;stroke-width:1.05833328;stroke-linecap:square;stroke-linejoin:round;stroke-miterlimit:4;stroke-dasharray:none;stroke-dashoffset:0.99968505;stroke-opacity:1"
       id="path4778" />
    <path
       sodipodi:nodetypes="ccccccc"
       inkscape:connector-curvature="0"
       id="path4791"
       d="m 269.73104,46.623322 c 2.71377,-1.85075 5.35895,-2.27637 9.36418,-0.0809 -3.18022,-4.96385 -7.62645,-6.47143 -13.22027,-4.77413 7.60618,-5.49015 8.24806,-11.36468 7.17174,-17.81265 -2.12583,5.41587 -4.66283,8.12953 -9.54696,10.12195 -1.17948,2.84646 -1.71358,6.43598 -0.56429,9.42841 1.86377,1.82992 4.25009,2.69786 6.7956,3.11729 z"
       style="opacity:1;fill:#fdd835;fill-opacity:1;stroke:none;stroke-width:26.29999924;stroke-linecap:round;stroke-linejoin:round;stroke-miterlimit:4;stroke-dasharray:none;stroke-dashoffset:0.99968505;stroke-opacity:1" />
    <path
       sodipodi:nodetypes="ccssccssccccccccccccccc"
       inkscape:connector-curvature="0"
       id="path4793"
       d="m 49.020108,33.765326 c -5.653718,0.0366 -10.981366,1.55761 -15.92586,4.77614 -11.218918,7.30275 -16.366339,17.20582 -16.576625,30.75753 -0.14432,9.3006 5.046964,16.23538 11.611708,18.02519 6.956745,1.89668 14.574995,-2.74623 17.020981,-10.74619 1.600477,-5.23457 0.07729,-13.78132 6.346225,-12.28474 5.692051,1.35887 -0.844607,13.08729 -1.898486,18.41574 -1.876192,9.4861 1.070909,18.298844 7.296628,26.500434 4.619549,6.08566 11.47859,8.91305 19.03125,5.24971 10.017255,-4.85878 10.657803,-15.373234 5.609653,-23.741524 -2.921466,-4.84288 0.124468,-10.85391 0.678594,-13.08856 1.712845,-6.90755 1.707957,-13.5772 0.18368,-19.53777 -4.496237,-2.91416 -6.137359,-7.05045 -6.056328,-12.1934 -3.764526,-4.64807 -8.923028,-8.20741 -15.276487,-10.19051 -4.155293,-1.29699 -8.1766,-1.9671 -12.044933,-1.94209 z m 19.001125,11.63027 c 0.06331,5.3e-4 0.126589,0.004 0.189708,0.008 1.479924,0.11138 2.589314,1.40145 2.477821,2.88136 -0.111616,1.47974 -1.401608,2.58887 -2.881358,2.47736 -1.479928,-0.11137 -2.589319,-1.40144 -2.477821,-2.88136 0.105921,-1.40645 1.281234,-2.49163 2.69165,-2.48525 z"
       style="opacity:1;fill:#26a69a;fill-opacity:1;stroke:none;stroke-width:26.29999924;stroke-linecap:round;stroke-linejoin:round;stroke-miterlimit:4;stroke-dasharray:none;stroke-dashoffset:0.99968505;stroke-opacity:1" />
    <circle
       transform="rotate(-27.868358)"
       r="15.232725"
       cy="155.20448"
       cx="16.228607"
       id="circle4795"
       style="opacity:1;fill:#26a69a;fill-opacity:1;stroke:none;stroke-width:26.29999924;stroke-linecap:round;stroke-linejoin:round;stroke-miterlimit:4;stroke-dasharray:none;stroke-dashoffset:0.99968505;stroke-opacity:1" />
    <path
       id="path4797"
       style="opacity:1;fill:#e53935;fill-opacity:1;stroke:none;stroke-width:1.05833328;stroke-linecap:square;stroke-linejoin:round;stroke-miterlimit:4;stroke-dasharray:none;stroke-dashoffset:0.99968505;stroke-opacity:1"
       d="m 118.48756,21.996616 c 3.39928,3.39677 5.35794,8.74562 2.94791,13.63855 -0.80729,-2.14271 -3.09181,-2.71718 -5.33476,-2.51822 -2.8576,0.25348 -5.0937,2.70784 -4.93998,5.19066 0.19092,3.08404 3.22501,5.06062 6.95301,4.96434 3.85046,-0.0994 5.60471,-2.36028 6.77037,-4.60994 4.82636,-9.31463 -0.88106,-20.61408 -8.98946,-25.13708 -4.70732,5.28568 -11.56742,8.53093 -21.232733,9.89896 5.507173,5.30731 11.193143,16.64123 8.426793,20.34414 -1.01498,-2.09044 -3.091791,-2.71717 -5.334748,-2.51821 -2.857585,0.25348 -5.000703,2.37524 -4.939973,5.19065 0.06666,3.08924 3.225002,5.06063 6.95302,4.96435 3.850451,-0.0994 6.370801,-2.25212 7.431821,-4.553 3.19414,-6.92662 -0.038,-13.59942 -2.50499,-17.50136 4.57609,-0.8067 11.08892,-4.43634 13.79372,-7.35384 z"
       inkscape:connector-curvature="0"
       sodipodi:nodetypes="ccsssscccsssscc" />
    <path
       style="opacity:1;fill:#fbc02d;fill-opacity:1;stroke:none;stroke-width:26.29999924;stroke-linecap:round;stroke-linejoin:round;stroke-miterlimit:4;stroke-dasharray:none;stroke-dashoffset:0.99968505;stroke-opacity:1"
       d="m 82.397856,58.091286 c 2.637563,-1.79878 5.208463,-2.21245 9.101214,-0.0786 -3.09091,-4.82446 -7.41228,-6.2897 -12.849021,-4.64006 7.392588,-5.33598 8.016447,-11.04554 6.970346,-17.31244 -2.066129,5.26378 -4.531888,7.90123 -9.278867,9.8377 -1.146358,2.76653 -1.665453,6.25525 -0.548445,9.16365 1.81144,1.77853 4.130747,2.6221 6.604773,3.02975 z"
       id="path4799"
       inkscape:connector-curvature="0"
       sodipodi:nodetypes="ccccccc" />
    <path
       style="opacity:1;fill:#e53935;fill-opacity:1;stroke:none;stroke-width:99.40157318;stroke-linecap:round;stroke-linejoin:round;stroke-miterlimit:4;stroke-dasharray:none;stroke-dashoffset:0.99968505;stroke-opacity:1"
       d="m 102.26758,103.7793 c -56.045649,33.31239 -78.674933,99.36051 -56.35261,148.59091 12.717376,28.04733 46.329472,40.47214 73.83828,30.22159 19.02467,-7.08912 32.02956,-27.12225 34.79753,-46.62696 -6.13287,3.69116 -13.46966,4.7478 -20.84376,2.83678 3.91557,-2.71247 5.92867,-6.17778 5.82746,-9.79247 -8.91671,3.83724 -19.25824,4.67653 -26.8001,0.97136 29.24029,-11.60092 22.53393,-25.32595 46.7068,-42.47228 20.05581,-14.22601 50.7376,11.91366 33.0897,35.51383 -12.47662,16.68473 -19.3561,31.02633 -23.44036,50.6117 -5.90822,28.33186 -0.41968,64.57546 26.27276,106.56159 16.03351,25.22007 45.55,36.13822 74.43945,20.53516 33.87899,-18.29788 42.49181,-52.40015 26.53955,-77.73351 -11.89376,-18.88816 -4.24493,-47.36833 3.71496,-62.67019 12.2484,-23.54596 10.18093,-53.17827 -4.9381,-80.07872 -17.58693,-11.39868 -24.0064,-27.57878 -23.68945,-47.69532 C 238.33621,82.807772 155.85631,71.927252 102.26758,103.7793 Z m 138.61719,25.80859 v 0.002 c 0.24763,0.002 0.49529,0.0142 0.74218,0.0293 5.78869,0.43567 10.12751,5.48092 9.69141,11.26953 -0.43658,5.78797 -5.48153,10.1276 -11.26953,9.69141 -5.78871,-0.43563 -10.12948,-5.4828 -9.69336,-11.27149 0.41431,-5.50129 5.01248,-9.74564 10.5293,-9.7207 z"
       id="path4801"
       inkscape:connector-curvature="0"
       sodipodi:nodetypes="sssccccsssssssccscccccccc"
       transform="matrix(0.26458333,0,0,0.26458333,0,161.53332)" />
    <circle
       style="opacity:1;fill:#e53935;fill-opacity:1;stroke:none;stroke-width:26.29999924;stroke-linecap:round;stroke-linejoin:round;stroke-miterlimit:4;stroke-dasharray:none;stroke-dashoffset:0.99968505;stroke-opacity:1"
       id="circle4803"
       cx="-59.382004"
       cy="286.37601"
       r="14.806157"
       transform="rotate(-27.868358)" />
    <path
       sodipodi:nodetypes="ccsssscccsssscc"
       inkscape:connector-curvature="0"
       d="m 115.31255,172.27995 c 3.39928,3.39677 4.82878,8.74562 2.41875,13.63855 -0.80729,-2.14271 -3.09181,-2.71718 -5.33476,-2.51822 -2.8576,0.25348 -5.0937,2.70784 -4.93998,5.19066 0.19092,3.08404 3.22501,5.06062 6.95301,4.96434 3.85046,-0.0994 5.60471,-2.36028 6.77037,-4.60994 4.82636,-9.31463 -0.31979,-20.2399 -8.98946,-25.13708 -4.70732,5.28568 -11.56742,8.53093 -21.23273,9.89896 5.507173,5.30731 11.19314,16.64123 8.426793,20.34414 -1.01498,-2.09044 -3.091791,-2.71717 -5.334748,-2.51821 -2.857585,0.25348 -5.000703,2.37524 -4.939973,5.19065 0.06666,3.08924 3.225002,5.06063 6.95302,4.96435 3.850451,-0.0994 6.370798,-2.25212 7.431818,-4.553 3.19414,-6.92662 -0.038,-13.59942 -2.50499,-17.50136 4.57609,-0.8067 11.61808,-4.43634 14.32288,-7.35384 z"
       style="opacity:1;fill:#4caf50;fill-opacity:1;stroke:none;stroke-width:1.05833328;stroke-linecap:square;stroke-linejoin:round;stroke-miterlimit:4;stroke-dasharray:none;stroke-dashoffset:0.99968505;stroke-opacity:1"
       id="path4805" />
    <path
       sodipodi:nodetypes="cccccccc"
       inkscape:connector-curvature="0"
       id="path4807"
       d="m 78.083379,209.22391 c 2.729645,-1.86158 5.3903,-2.28969 9.418955,-0.0813 -3.19882,-4.99289 -7.406474,-7.03846 -13.033022,-5.33123 7.650677,-5.52227 8.031733,-10.90199 6.949111,-17.38768 -2.138262,5.44755 -4.690105,8.17708 -9.60281,10.18116 -1.186379,2.86311 -1.723597,6.47363 -0.567592,9.48357 1.874681,1.84062 4.274959,2.71364 6.835358,3.13552 z"
       style="opacity:1;fill:#fbc02d;fill-opacity:1;stroke:none;stroke-width:26.29999924;stroke-linecap:round;stroke-linejoin:round;stroke-miterlimit:4;stroke-dasharray:none;stroke-dashoffset:0.99968505;stroke-opacity:1" />
  </g>
</svg>
