<?xml version="1.0" encoding="UTF-8" standalone="no"?>
<!-- Created with Inkscape (http://www.inkscape.org/) -->

<svg
   xmlns:dc="http://purl.org/dc/elements/1.1/"
   xmlns:cc="http://creativecommons.org/ns#"
   xmlns:rdf="http://www.w3.org/1999/02/22-rdf-syntax-ns#"
   xmlns:svg="http://www.w3.org/2000/svg"
   xmlns="http://www.w3.org/2000/svg"
   xmlns:sodipodi="http://sodipodi.sourceforge.net/DTD/sodipodi-0.dtd"
   xmlns:inkscape="http://www.inkscape.org/namespaces/inkscape"
   width="512"
   height="512"
   viewBox="0 0 135.46666 135.46667"
   version="1.1"
   id="svg8"
   inkscape:version="0.92.4 5da689c313, 2019-01-14"
   sodipodi:docname="question.svg">
  <defs
     id="defs2" />
  <sodipodi:namedview
     id="base"
     pagecolor="#ffffff"
     bordercolor="#666666"
     borderopacity="1.0"
     inkscape:pageopacity="0.0"
     inkscape:pageshadow="2"
     inkscape:zoom="0.99999999"
     inkscape:cx="471.05369"
     inkscape:cy="330.53091"
     inkscape:document-units="mm"
     inkscape:current-layer="layer1"
     showgrid="false"
     units="px"
     inkscape:window-width="1916"
     inkscape:window-height="1160"
     inkscape:window-x="0"
     inkscape:window-y="38"
     inkscape:window-maximized="0"
     inkscape:snap-global="false"
     inkscape:snap-bbox="true"
     inkscape:bbox-nodes="true"
     inkscape:snap-center="true"
     inkscape:snap-grids="true"
     inkscape:object-paths="true">
    <inkscape:grid
       type="xygrid"
       id="grid4485"
       empspacing="4"
       spacingx="4.2333333"
       spacingy="4.2333333" />
  </sodipodi:namedview>
  <metadata
     id="metadata5">
    <rdf:RDF>
      <cc:Work
         rdf:about="">
        <dc:format>image/svg+xml</dc:format>
        <dc:type
           rdf:resource="http://purl.org/dc/dcmitype/StillImage" />
        <dc:title />
      </cc:Work>
    </rdf:RDF>
  </metadata>
  <g
     inkscape:label="Layer 1"
     inkscape:groupmode="layer"
     id="layer1"
     transform="translate(0,-161.53332)">
    <path
       inkscape:connector-curvature="0"
       style="opacity:1;fill:#e0e0e0;fill-opacity:1;stroke:none;stroke-width:26.30000305;stroke-linecap:round;stroke-linejoin:round;stroke-miterlimit:4;stroke-dasharray:none;stroke-dashoffset:0.99968505;stroke-opacity:1"
       clip-path="none"
       d="m 45.015422,184.19335 c -6.366468,0.0343 -12.749896,1.60266 -18.060009,4.75886 -14.809515,8.80249 -20.7887088,26.25581 -14.890252,39.26445 3.360441,7.41123 12.242236,10.69352 19.51117,7.9849 5.027081,-1.87322 8.463984,-7.16618 9.195391,-12.32009 -1.620552,0.97535 -3.560538,1.25516 -5.509071,0.75021 1.034651,-0.71675 1.566581,-1.63329 1.539839,-2.58845 -2.356153,1.01397 -5.08842,1.23663 -7.081282,0.25766 7.726456,-3.06543 5.955184,-6.69289 12.342625,-11.22364 5.299553,-3.75908 13.406861,3.14788 8.743572,9.38401 -3.296823,4.40877 -5.115312,8.1991 -6.194538,13.37433 -1.56119,7.48643 -0.111264,17.06322 6.941937,28.15762 4.236703,6.66417 12.036473,9.54898 19.670222,5.42604 8.952179,-4.83507 11.228951,-13.84597 7.013717,-20.54007 -3.142807,-4.99104 -1.122269,-12.51623 0.981049,-16.55961 3.236523,-6.22177 2.69028,-14.05259 -1.304773,-21.16078 2.7261,-1.85917 5.383085,-2.28606 9.406516,-0.0804 -3.194671,-4.98639 -7.397584,-7.02966 -13.016833,-5.32466 7.64076,-5.51512 8.021742,-10.88883 6.940528,-17.36609 -2.135316,5.44 -4.683962,8.16655 -9.589497,10.16798 -5.465394,-8.21539 -16.02953,-12.41957 -26.640311,-12.36233 z M 63.58355,195.7731 c 0.06543,5.4e-4 0.131801,0.005 0.197062,0.008 1.529604,0.11523 2.675531,1.44735 2.560295,2.97694 -0.01389,0.18249 -0.04761,0.35915 -0.0943,0.52923 a 2.667039,2.667039 0 0 0 -1.698886,-0.61085 2.667039,2.667039 0 0 0 -2.608154,2.11127 c -0.749934,-0.54785 -1.212176,-1.45216 -1.137282,-2.44627 0.109467,-1.45366 1.323512,-2.57535 2.781277,-2.56876 z m 17.813694,70.20475 a 14.786954,14.786954 0 0 0 -7.113656,1.71296 14.786954,14.786954 0 0 0 -6.159347,19.98409 14.786954,14.786954 0 0 0 19.984105,6.15939 14.786954,14.786954 0 0 0 6.159345,-19.98411 14.786954,14.786954 0 0 0 -12.870447,-7.87233 z"
       id="path1556" />
    <path
       sodipodi:nodetypes="ccsssscccsssscc"
       inkscape:connector-curvature="0"
       d="m 115.41406,172.33081 c 3.38653,3.38763 4.81068,8.72205 2.40968,13.60176 -0.80426,-2.13694 -3.08021,-2.70984 -5.31474,-2.51142 -2.8469,0.2528 -5.07461,2.70055 -4.92145,5.17665 0.19019,3.0757 3.2129,5.04696 6.92692,4.95093 3.83603,-0.0991 5.58369,-2.35389 6.74499,-4.5975 4.80827,-9.28947 -0.3186,-20.18525 -8.95576,-25.06922 -4.68967,5.2714 -11.52405,8.50788 -21.153104,9.87223 5.486501,5.29301 11.151144,16.59632 8.395168,20.28925 -1.011182,-2.08479 -3.080174,-2.70986 -5.31473,-2.51142 -2.846881,0.25279 -4.981966,2.36883 -4.921459,5.17663 0.06632,3.08091 3.212931,5.04698 6.926952,4.95096 3.836013,-0.0991 6.346913,-2.24603 7.403943,-4.54072 3.18218,-6.90792 -0.0378,-13.56269 -2.4956,-17.45411 4.55895,-0.80452 11.57454,-4.42437 14.26919,-7.33402 z"
       style="opacity:1;fill:#e0e0e0;fill-opacity:1;stroke:none;stroke-width:1.05833316;stroke-linecap:square;stroke-linejoin:round;stroke-miterlimit:4;stroke-dasharray:none;stroke-dashoffset:0.99968505;stroke-opacity:1"
       id="path1562" />
  </g>
</svg>
