<?xml version="1.0" encoding="UTF-8" standalone="no"?>
<!-- Created with Inkscape (http://www.inkscape.org/) -->

<svg
   xmlns:dc="http://purl.org/dc/elements/1.1/"
   xmlns:cc="http://creativecommons.org/ns#"
   xmlns:rdf="http://www.w3.org/1999/02/22-rdf-syntax-ns#"
   xmlns:svg="http://www.w3.org/2000/svg"
   xmlns="http://www.w3.org/2000/svg"
   xmlns:sodipodi="http://sodipodi.sourceforge.net/DTD/sodipodi-0.dtd"
   xmlns:inkscape="http://www.inkscape.org/namespaces/inkscape"
   width="512"
   height="512"
   viewBox="0 0 135.46666 135.46667"
   version="1.1"
   id="svg8"
   inkscape:version="0.92.4 5da689c313, 2019-01-14"
   sodipodi:docname="question.svg">
  <defs
     id="defs2">
    <filter
       inkscape:collect="always"
       style="color-interpolation-filters:sRGB"
       id="filter1707"
       x="-0.030000001"
       width="1.06"
       y="-0.029999999"
       height="1.06">
      <feGaussianBlur
         inkscape:collect="always"
         stdDeviation="1.6933333"
         id="feGaussianBlur1709" />
    </filter>
  </defs>
  <sodipodi:namedview
     id="base"
     pagecolor="#ffffff"
     bordercolor="#666666"
     borderopacity="1.0"
     inkscape:pageopacity="0.0"
     inkscape:pageshadow="2"
     inkscape:zoom="0.99999999"
     inkscape:cx="249.48284"
     inkscape:cy="292.61248"
     inkscape:document-units="mm"
     inkscape:current-layer="layer1"
     showgrid="false"
     units="px"
     inkscape:window-width="1916"
     inkscape:window-height="1160"
     inkscape:window-x="0"
     inkscape:window-y="38"
     inkscape:window-maximized="0"
     inkscape:snap-global="true"
     inkscape:snap-bbox="true"
     inkscape:bbox-nodes="true"
     inkscape:snap-center="true"
     inkscape:snap-grids="true"
     inkscape:object-paths="true">
    <inkscape:grid
       type="xygrid"
       id="grid4485"
       empspacing="4"
       spacingx="4.2333333"
       spacingy="4.2333333" />
  </sodipodi:namedview>
  <metadata
     id="metadata5">
    <rdf:RDF>
      <cc:Work
         rdf:about="">
        <dc:format>image/svg+xml</dc:format>
        <dc:type
           rdf:resource="http://purl.org/dc/dcmitype/StillImage" />
        <dc:title></dc:title>
      </cc:Work>
    </rdf:RDF>
  </metadata>
  <g
     inkscape:label="Layer 1"
     inkscape:groupmode="layer"
     id="layer1"
     transform="translate(0,-161.53332)">
    <rect
       style="opacity:1;fill:#e0e0e0;fill-opacity:1;stroke:none;stroke-width:26.29999924;stroke-linecap:round;stroke-linejoin:round;stroke-miterlimit:4;stroke-dasharray:none;stroke-dashoffset:0.99968505;stroke-opacity:1"
       id="rect1711"
       width="135.46666"
       height="135.46666"
       x="0"
       y="161.53333" />
    <path
       id="path1693"
       d="M 0,163.64996 V 299.11663 H 135.46666 V 163.64996 Z m 112.19057,2.2748 c 8.66967,4.89718 13.81547,15.82234 8.98911,25.13697 -1.16566,2.24966 -2.91967,4.51065 -6.77013,4.61005 -3.728,0.0963 -6.76214,-1.88 -6.95306,-4.96404 -0.15372,-2.48282 2.08266,-4.93741 4.94027,-5.19089 2.24295,-0.19896 4.52726,0.37548 5.33455,2.51819 2.41003,-4.89293 0.98031,-10.24168 -2.41897,-13.63845 -2.7048,2.9175 -9.74655,6.54738 -14.32264,7.35408 2.46699,3.90194 5.6989,10.57463 2.50476,17.50125 -1.06102,2.30088 -3.58114,4.4533 -7.43159,4.5527 -3.728019,0.0963 -6.886405,-1.8748 -6.953064,-4.96404 -0.06073,-2.81541 2.082164,-4.93742 4.939749,-5.1909 2.242958,-0.19896 4.320096,0.42776 5.335074,2.51819 2.766351,-3.70291 -2.919701,-15.03666 -8.426876,-20.34397 9.665307,-1.36803 16.525497,-4.61346 21.232817,-9.89914 z m -67.048624,20.41839 c 10.624563,-0.0573 21.201334,4.152 26.673825,12.37806 v 5.1e-4 c 4.912704,-2.00408 7.464253,-4.73374 9.602515,-10.18129 1.082622,6.48569 0.701747,11.8653 -6.948932,17.38757 5.62655,-1.70723 9.833978,0.33857 13.032798,5.33146 -4.028657,-2.20839 -6.688902,-1.78045 -9.418547,0.0811 4.000243,7.11741 4.547102,14.95747 1.30638,21.18734 -2.106054,4.04862 -4.129775,11.58392 -0.982885,16.58141 4.220702,6.70279 1.942021,15.72591 -7.021795,20.56723 -7.643667,4.12831 -15.453238,1.23954 -19.695438,-5.43327 -7.062374,-11.10883 -8.514731,-20.69852 -6.951514,-28.19466 1.080627,-5.18196 2.901101,-8.97641 6.202206,-13.39091 4.66934,-6.24421 -3.448587,-13.16029 -8.75502,-9.39633 -6.395738,4.53664 -4.621419,8.16815 -12.357901,11.23756 1.99544,0.98033 4.731826,0.75844 7.091039,-0.25683 0.02678,0.95639 -0.506031,1.87286 -1.542026,2.59054 1.951064,0.50562 3.892254,0.22628 5.514909,-0.75034 -0.732359,5.16062 -4.173061,10.46105 -9.206672,12.33671 -7.278375,2.71213 -16.171987,-0.57504 -19.536793,-7.99589 -5.9061131,-13.02555 0.08146,-30.50101 14.910202,-39.31491 5.317006,-3.16033 11.708913,-4.7307 18.083649,-4.76509 z m 18.592149,11.59361 c -1.459659,-0.007 -2.676258,1.11638 -2.785878,2.57193 -0.11539,1.53159 1.033106,2.86699 2.564702,2.98225 1.531408,0.11541 2.866218,-1.03278 2.98173,-2.56418 0.115384,-1.53157 -1.032595,-2.86646 -2.564186,-2.98173 -0.06532,-0.004 -0.13085,-0.007 -0.196368,-0.008 z m 17.83612,70.29597 a 14.806156,14.806156 0 0 1 12.887584,7.88375 14.806156,14.806156 0 0 1 -6.167583,20.01015 14.806156,14.806156 0 0 1 -20.010146,-6.1681 14.806156,14.806156 0 0 1 6.168099,-20.01015 14.806156,14.806156 0 0 1 7.122046,-1.71565 z"
       style="opacity:0.2;fill:#000000;fill-opacity:1;stroke:none;stroke-width:26.29999924;stroke-linecap:round;stroke-linejoin:round;stroke-miterlimit:4;stroke-dasharray:none;stroke-dashoffset:0.99968505;stroke-opacity:1;filter:url(#filter1707)"
       inkscape:connector-curvature="0" />
    <path
       style="display:inline;opacity:1;fill:#eeeeee;fill-opacity:1;stroke:none;stroke-width:99.40157318;stroke-linecap:round;stroke-linejoin:round;stroke-miterlimit:4;stroke-dasharray:none;stroke-dashoffset:0.99968505;stroke-opacity:1"
       d="M 0,0 V 512 H 512 V 0 Z m 424.02734,8.5976562 c 32.76726,18.5090268 52.21597,59.8009548 33.97461,95.0058638 -4.40564,8.50265 -11.03497,17.04814 -25.58789,17.42382 -14.09008,0.3639 -25.55771,-7.1055 -26.27929,-18.76172 -0.58099,-9.383877 7.87149,-18.661101 18.67187,-19.619136 8.47729,-0.751974 17.11094,1.419148 20.16211,9.517578 9.10877,-18.492962 3.70509,-38.70869 -9.14258,-51.546874 -10.22286,11.02677 -36.83735,24.745976 -54.13281,27.794921 9.32406,14.74749 21.53914,39.967131 9.4668,66.146481 -4.01016,8.69624 -13.53501,16.83136 -28.08789,17.20703 -14.09015,0.3639 -26.02736,-7.08585 -26.2793,-18.76171 -0.22953,-10.64092 7.8696,-18.66111 18.66992,-19.61914 8.47732,-0.75198 16.32792,1.6167 20.16406,9.51757 10.45549,-13.99525 -11.03509,-56.831498 -31.84961,-76.890621 36.53031,-5.170507 62.45856,-17.43669 80.25,-37.4140628 z M 170.61523,85.769531 c 40.15583,-0.216607 80.13103,15.692579 100.81446,46.783199 v 0.002 c 18.5677,-7.57448 28.21135,-17.89131 36.29297,-38.480471 4.0918,24.512841 2.65227,44.845221 -26.26368,65.716801 21.2657,-6.45253 37.16779,1.27962 49.25782,20.15039 -15.22642,-8.34667 -25.28089,-6.72926 -35.59766,0.30664 15.11903,26.90045 17.1859,56.53216 4.9375,80.07812 -7.95989,15.30186 -15.6086,43.78176 -3.71484,62.66992 15.95226,25.33336 7.33992,59.4365 -26.53907,77.73438 -28.88945,15.60306 -58.40594,4.68491 -74.43945,-20.53516 -26.69244,-41.98613 -32.18166,-78.23064 -26.27344,-106.5625 4.08426,-19.58537 10.96479,-33.9266 23.44141,-50.61133 17.6479,-23.60017 -13.03403,-49.73968 -33.08984,-35.51367 -24.17287,17.14633 -17.46678,30.87174 -46.70703,42.47266 7.54182,3.70517 17.88407,2.86654 26.80078,-0.9707 0.10121,3.61469 -1.91256,7.07854 -5.82813,9.79101 7.3741,1.91102 14.71088,0.85522 20.84375,-2.83594 -2.76797,19.50471 -15.7722,39.53784 -34.79687,46.62696 -27.50882,10.25055 -61.122472,-2.17338 -73.839848,-30.22071 -22.322319,-49.2304 0.307865,-115.2794 56.353518,-148.59179 20.09577,-11.94453 44.25416,-17.879804 68.34765,-18.009769 z m 70.26954,43.818359 c -5.51682,-0.0249 -10.11499,4.21941 -10.5293,9.7207 -0.43612,5.78869 3.90465,10.83586 9.69336,11.27149 5.788,0.43619 10.83295,-3.90344 11.26953,-9.69141 0.4361,-5.78861 -3.90272,-10.83386 -9.69141,-11.26953 -0.24689,-0.0151 -0.49455,-0.0273 -0.74218,-0.0293 z m 67.41211,265.68555 a 55.960276,55.960276 0 0 1 48.70898,29.79687 55.960276,55.960276 0 0 1 -23.31055,75.62891 55.960276,55.960276 0 0 1 -75.6289,-23.3125 55.960276,55.960276 0 0 1 23.3125,-75.62891 55.960276,55.960276 0 0 1 26.91797,-6.48437 z"
       id="rect1690"
       inkscape:connector-curvature="0"
       transform="matrix(0.26458333,0,0,0.26458333,0,161.53332)" />
  </g>
</svg>
